<svg width="113" height="65" viewBox="0 0 113 65" fill="none" xmlns="http://www.w3.org/2000/svg">
<path d="M41.8856 18.671L40.5701 17.3843L55.0258 3.51615L52.5949 1.12949L53.7453 0L56.3713 2.57818V4.99921L41.8856 18.671Z" fill="#070707"/>
<path d="M70.857 18.671L72.1727 17.3843L57.7218 3.51615L60.1478 1.12949L59.0023 0L56.3713 2.57818V4.99921L70.857 18.671Z" fill="#070707"/>
<path d="M46.5524 27.9769L50.6741 32.0234H46.5524V27.9769Z" fill="#070707"/>
<path d="M46.5524 18.0915C46.5524 18.0915 47.5179 21.5291 50.1889 21.5291H54.9608L49.0034 15.6802L46.5524 18.0915Z" fill="#070707"/>
<path d="M49.7937 15.0124L55.7511 20.8563V17.4187C55.7569 16.4736 55.51 15.5436 55.0351 14.7215C54.5603 13.8994 53.8741 13.2141 53.045 12.7338C52.8072 12.5967 52.5537 12.4879 52.2897 12.4097L49.7937 15.0124Z" fill="#070707"/>
<path d="M46.5524 26.3614C46.5524 26.3614 47.5179 22.9237 50.1889 22.9237H54.9608L49.0034 28.7676L46.5524 26.3614Z" fill="#070707"/>
<path d="M49.7937 29.4404L55.7511 23.5917V27.0292C55.759 27.974 55.5131 28.9042 55.0379 29.7259C54.5628 30.5475 53.8754 31.2317 53.045 31.7092C52.8084 31.8498 52.5546 31.9603 52.2897 32.0383L49.7937 29.4404Z" fill="#070707"/>
<path d="M53.2902 11.4521C53.2902 11.4521 55.6211 12.3998 56.3814 14.3102V8.4172L53.2902 11.4521Z" fill="#070707"/>
<path d="M66.2101 27.9769L62.0886 32.0234H66.2101V27.9769Z" fill="#070707"/>
<path d="M66.2302 18.0915C66.2302 18.0915 65.2698 21.5291 62.5987 21.5291H57.8218L63.7792 15.6802L66.2302 18.0915Z" fill="#070707"/>
<path d="M62.9689 15.0124L57.0116 20.8563V17.4187C57.0058 16.4736 57.2527 15.5436 57.7275 14.7215C58.2024 13.8994 58.8886 13.2141 59.7177 12.7338C59.9554 12.5967 60.209 12.4879 60.473 12.4097L62.9689 15.0124Z" fill="#070707"/>
<path d="M66.2302 26.3614C66.2302 26.3614 65.2698 22.9237 62.5987 22.9237H57.8218L63.7792 28.7676L66.2302 26.3614Z" fill="#070707"/>
<path d="M62.9688 29.4404L57.0115 23.5917V27.0292C57.0035 27.974 57.2495 28.9042 57.7246 29.7259C58.1997 30.5475 58.8871 31.2317 59.7175 31.7092C59.9541 31.8498 60.2079 31.9603 60.4729 32.0383L62.9688 29.4404Z" fill="#070707"/>
<path d="M59.4726 11.4521C59.4726 11.4521 57.1417 12.3998 56.3814 14.3102V8.4172L59.4726 11.4521Z" fill="#070707"/>
<path d="M6.17427 53.0069C7.7119 52.923 8.68892 52.3255 9.11597 51.7541L9.2014 51.8223C8.75324 52.541 8.12586 53.1356 7.3785 53.5502C6.63122 53.9647 5.78864 54.1854 4.93032 54.1915C4.28072 54.2207 3.63199 54.1178 3.02489 53.8889C2.4178 53.6602 1.86547 53.3106 1.40265 52.8621C0.939836 52.4136 0.576529 51.876 0.335572 51.283C0.0946215 50.69 -0.0187734 50.0544 0.00253063 49.4164C0.00253063 46.7956 1.54014 44.6413 4.71676 44.6413C5.78454 44.6413 8.61952 44.9663 8.88646 46.9633C8.88646 47.0158 8.88646 47.0786 8.88646 47.1258C8.88646 47.9855 8.01089 48.4572 7.06585 48.5568C7.13009 48.2639 7.16408 47.9653 7.1673 47.6657C7.1673 46.0408 6.09954 44.8195 4.83422 44.8195C3.19519 44.8195 2.02063 46.4759 2.02063 48.41V48.6878C2.17011 51.3663 3.79313 53.0069 5.95538 53.0069H6.17427Z" fill="#070707"/>
<path d="M18.5605 51.8223C18.5605 53.0226 18.9396 53.248 19.2225 53.248C19.2897 53.2479 19.3563 53.2372 19.4201 53.2166C19.2924 53.5244 19.0686 53.7846 18.7807 53.9597C18.493 54.1349 18.1561 54.216 17.8185 54.1915C16.5264 54.1915 16.3609 53.0855 16.3609 52.1263V51.513C15.5814 53.0069 14.0599 54.1915 12.4101 54.1915C12.1272 54.2107 11.8434 54.1714 11.5769 54.0763C11.3105 53.9811 11.0672 53.8322 10.863 53.6391C10.6588 53.446 10.498 53.213 10.3912 52.9551C10.2843 52.6972 10.2337 52.4203 10.2426 52.142C10.2426 49.2853 15.4373 48.7979 16.3609 48.735V46.8376C16.3609 45.5534 15.5334 44.8195 14.5563 44.8195C14.3156 44.7965 14.0726 44.8217 13.8419 44.8932C13.6112 44.9648 13.3977 45.0816 13.2142 45.2363C13.0306 45.391 12.8809 45.5806 12.7739 45.7936C12.6669 46.0066 12.6049 46.2387 12.5916 46.4759C12.5758 46.7806 12.6444 47.0838 12.7901 47.3534C12.9358 47.6229 13.1532 47.8485 13.4192 48.0064C13.1717 48.0788 12.9137 48.1106 12.6557 48.1008C11.9296 48.1008 10.9366 47.8754 10.9366 46.8376C10.9366 45.0973 13.8303 44.6413 14.6738 44.6413H14.7379C17.1884 44.6413 18.5285 45.8312 18.5285 47.7286V51.7699L18.5605 51.8223ZM16.377 51.2981V48.8345C15.2504 48.9761 12.4262 49.6785 12.4262 51.7699C12.4262 52.2941 12.7572 52.9859 13.9157 52.9859C15.0743 52.9859 15.9284 52.1263 16.377 51.2824V51.2981Z" fill="#070707"/>
<path d="M28.5816 51.5287C28.5496 53.5415 26.1684 54.1495 24.6148 54.1495H24.3319C23.5897 54.1495 20.2636 53.9189 20.2636 51.99C20.2636 50.8526 21.5716 50.559 22.2817 50.559H22.4472C22.1518 50.9548 21.9894 51.4312 21.9827 51.9218C21.9827 52.9964 22.8263 53.9713 24.3319 53.987C24.3867 53.9786 24.4425 53.9786 24.4973 53.987C24.6949 53.987 26.6329 53.9032 26.6329 52.2311C26.6329 49.9248 20.5466 49.5684 20.5466 46.9214C20.5466 45.134 22.8583 44.6308 24.4173 44.6308H24.4973C25.5651 44.6308 28.2346 45.1025 28.2346 46.8113C28.2346 47.7495 26.9319 47.9278 26.4514 47.9278C26.366 47.9278 26.3179 47.9278 26.2859 47.9278C26.4945 47.5489 26.608 47.1266 26.6169 46.696C26.6169 45.7053 25.9388 44.83 24.4173 44.809H24.1983C23.6378 44.809 22.3297 45.1183 22.3138 46.2714C22.3297 48.1846 28.5816 48.6878 28.5816 51.5287Z" fill="#070707"/>
<path d="M38.0635 51.8223C38.0635 53.0226 38.4426 53.248 38.7255 53.248C38.7927 53.2483 38.8594 53.2377 38.9231 53.2166C38.7953 53.5244 38.5715 53.7846 38.2837 53.9597C37.9959 54.1349 37.6591 54.216 37.3214 54.1915C36.0294 54.1915 35.8639 53.0855 35.8639 52.1263V51.513C35.0897 53.0069 33.5682 54.1915 31.9131 54.1915C31.6305 54.2098 31.3469 54.17 31.0809 54.0746C30.8147 53.9791 30.5719 53.8301 30.3678 53.6372C30.1637 53.4443 30.003 53.2116 29.8958 52.9541C29.7887 52.6967 29.7375 52.4201 29.7455 52.142C29.7455 49.2853 34.9403 48.7979 35.8639 48.735V46.8376C35.8639 45.5534 35.0364 44.8195 34.0647 44.8195C33.8235 44.7958 33.5799 44.8203 33.3486 44.8916C33.1173 44.9629 32.9031 45.0794 32.719 45.2342C32.5349 45.389 32.3846 45.5789 32.2773 45.7923C32.17 46.0057 32.1079 46.2383 32.0947 46.4759C32.0788 46.7806 32.1473 47.0838 32.293 47.3534C32.4388 47.6229 32.6562 47.8485 32.9221 48.0064C32.6747 48.0792 32.4167 48.1111 32.1587 48.1008C31.4326 48.1008 30.4396 47.8754 30.4396 46.8376C30.4396 45.0973 33.3332 44.6413 34.1768 44.6413H34.2462C36.6914 44.6413 38.0315 45.8312 38.0315 47.7286V51.7699L38.0635 51.8223ZM35.8799 51.2981V48.8345C34.7587 48.9761 31.9292 49.6785 31.9292 51.7699C31.9292 52.2941 32.2601 52.9859 33.4187 52.9859C33.9431 52.9413 34.4459 52.7598 34.8749 52.4603C35.3039 52.1608 35.6434 51.7541 35.8586 51.2824L35.8799 51.2981Z" fill="#070707"/>
<path d="M49.9317 49.1595C49.9317 51.9638 48.25 54.1915 45.0733 54.1915C44.2265 54.1577 43.392 53.9804 42.6068 53.6673C42.2384 53.5339 41.8376 53.5126 41.4567 53.606C41.0757 53.6996 40.7324 53.9036 40.4712 54.1915H40.1989V42.6914C40.1989 40.773 39.8359 40.7573 39.3234 40.7573V40.5791C39.8914 40.5084 40.4478 40.3657 40.9784 40.1545C41.4216 39.9877 41.8428 39.7695 42.233 39.5045H42.3826V47.7862C42.5467 46.9187 43.012 46.1338 43.6991 45.5652C44.3864 44.9966 45.2531 44.6793 46.1518 44.6675C48.3621 44.6413 49.9317 46.6593 49.9317 49.1595ZM47.7374 49.4163C47.7374 47.435 46.8405 45.5062 45.1214 45.5062C43.7493 45.5062 42.4093 46.7851 42.4093 49.1753V52.3202C42.6655 52.8032 43.0475 53.2109 43.5164 53.5019C43.9853 53.7929 44.5243 53.9567 45.0787 53.9766C47.0221 54.0133 47.7374 51.7384 47.7374 49.4163Z" fill="#070707"/>
<path d="M61.1327 49.4164C61.1327 52.0372 59.4456 54.1915 56.285 54.1915C53.1244 54.1915 51.4213 52.0476 51.4213 49.4164C51.4213 46.7851 53.1083 44.6413 56.285 44.6413C59.4616 44.6413 61.1327 46.7851 61.1327 49.4164ZM58.9331 49.4164C58.9331 46.8847 58.2391 44.8195 56.2636 44.8195C54.2883 44.8195 53.5942 46.8847 53.5942 49.4164C53.5942 51.9481 54.3097 54.0133 56.2636 54.0133C58.2177 54.0133 58.9331 51.9481 58.9331 49.4164Z" fill="#070707"/>
<path d="M65.1156 51.8013C65.1156 53.0226 65.532 53.248 65.8309 53.248C65.8927 53.2461 65.9538 53.2355 66.0125 53.2165C65.8936 53.5174 65.6809 53.7737 65.4048 53.9488C65.1286 54.1239 64.8031 54.2089 64.4749 54.1915C63.2469 54.1915 62.9533 53.0855 62.9533 52.1263V44.8195H61.4958V44.6413C64.1652 44.222 64.918 41.4963 64.918 41.4963H65.1156V44.6413H66.6371V44.8195H65.1156V51.8013Z" fill="#070707"/>
<path d="M75.4731 51.8223C75.4731 53.0226 75.8523 53.248 76.1349 53.248C76.2021 53.2474 76.2687 53.2367 76.3324 53.2166C76.205 53.5244 75.9811 53.7846 75.6935 53.9597C75.4051 54.1349 75.0689 54.216 74.7312 54.1915C73.4441 54.1915 73.2788 53.0855 73.2788 52.1263V51.513C72.499 53.0069 70.9777 54.1915 69.3226 54.1915C69.0402 54.2099 68.7569 54.1701 68.4911 54.0746C68.2253 53.9791 67.9827 53.8301 67.779 53.637C67.5754 53.444 67.4152 53.2113 67.3086 52.9538C67.2021 52.6963 67.1516 52.4198 67.1604 52.142C67.1604 49.2853 72.3501 48.7979 73.2788 48.735V46.8376C73.2788 45.5534 72.451 44.8195 71.4744 44.8195C71.2333 44.7958 70.9899 44.8203 70.759 44.8917C70.528 44.963 70.3142 45.0796 70.1304 45.2345C69.9468 45.3894 69.797 45.5793 69.6902 45.7926C69.5836 46.006 69.522 46.2385 69.5095 46.4759C69.4937 46.78 69.5617 47.0827 69.7064 47.352C69.8511 47.6214 70.0671 47.8475 70.3317 48.0064C70.0861 48.0789 69.8299 48.1108 69.5735 48.1008C68.8475 48.1008 67.8545 47.8754 67.8545 46.8376C67.8545 45.0973 70.7481 44.6413 71.5918 44.6413H71.6554C74.1066 44.6413 75.4466 45.8312 75.4466 47.7286V51.7699L75.4731 51.8223ZM73.2895 51.2981V48.8345C72.1627 48.9761 69.3333 49.6785 69.3333 51.7699C69.3333 52.2941 69.6643 52.9859 70.8229 52.9859C71.3535 52.946 71.8629 52.7668 72.2993 52.4671C72.7351 52.1675 73.0806 51.7583 73.3003 51.2824L73.2895 51.2981Z" fill="#070707"/>
<path d="M87.0155 51.8223C87.0155 53.0226 87.4104 53.248 87.7095 53.248C87.7767 53.2479 87.8433 53.2372 87.9069 53.2166C87.7882 53.5175 87.5757 53.7738 87.2995 53.9488C87.0234 54.1239 86.6978 54.2089 86.3694 54.1915C85.1467 54.1915 84.8484 53.0855 84.8484 52.1263V47.933C84.8484 46.5702 84.6667 45.1917 83.2465 45.1917C82.1197 45.1917 80.8969 46.4077 80.2352 47.9487V52.0896C80.203 52.6007 80.2924 53.1123 80.497 53.5834C80.5471 53.7088 80.6337 53.8171 80.7453 53.8952C80.8576 53.9733 80.99 54.018 81.1266 54.0237V54.2019H77.1759V54.0237C77.6724 54.0237 78.0673 53.4995 78.0673 52.0896V47.8282C78.0673 45.9098 77.6889 45.894 77.1759 45.894V45.7158C77.7447 45.6465 78.3006 45.5037 78.8314 45.2913C79.2743 45.1245 79.6957 44.9063 80.0856 44.6413H80.2409V47.5032C81.1001 45.7944 82.3765 44.6413 84.2073 44.6413C86.0389 44.6413 87.0369 45.8783 87.0369 47.7286L87.0155 51.8223Z" fill="#070707"/>
<path d="M92.6697 54.0133V54.1915H88.7347V54.0133C89.2148 54.0133 89.6104 53.4891 89.6104 52.0791V47.8281C89.6104 45.9098 89.247 45.894 88.7347 45.894V45.7158C89.3014 45.6591 89.8565 45.5231 90.3845 45.3122C90.8281 45.1585 91.2459 44.9394 91.623 44.6623H91.7883V52.1001C91.7554 52.6118 91.8469 53.1239 92.0551 53.5939C92.1031 53.716 92.1875 53.8212 92.2969 53.896C92.4064 53.9707 92.5359 54.0116 92.6697 54.0133ZM90.6886 43.2156C90.3953 43.2145 90.1091 43.1283 89.8659 42.9678C89.6226 42.8073 89.4337 42.5797 89.3221 42.3136C89.2098 42.0476 89.1812 41.755 89.2384 41.4728C89.2963 41.1907 89.4373 40.9316 89.6448 40.7281C89.8515 40.5246 90.1155 40.3859 90.4032 40.3295C90.6908 40.2731 90.9884 40.3015 91.2595 40.4112C91.5307 40.5209 91.7625 40.7068 91.9256 40.9456C92.0895 41.1844 92.1775 41.4655 92.1782 41.7531C92.1739 42.1398 92.0158 42.5093 91.7375 42.7828C91.4592 43.0561 91.0821 43.2115 90.6886 43.2156Z" fill="#070707"/>
<path d="M99.7491 53.0069C101.287 52.923 102.263 52.3255 102.696 51.7541L102.776 51.8223C102.328 52.5413 101.701 53.1362 100.953 53.5509C100.206 53.9654 99.3635 54.1859 98.5049 54.1915C97.8553 54.2207 97.2064 54.1178 96.5997 53.8889C95.9923 53.6602 95.4399 53.3106 94.977 52.8621C94.5141 52.4136 94.1514 51.876 93.9103 51.283C93.6692 50.69 93.5554 50.0544 93.5769 49.4164C93.5769 46.7956 95.1144 44.6413 98.291 44.6413C99.3592 44.6413 102.194 44.9663 102.456 46.9633C102.456 47.0158 102.456 47.0786 102.456 47.1258C102.456 47.9855 101.58 48.4572 100.641 48.5568C100.703 48.2637 100.735 47.9651 100.736 47.6657C100.736 46.0408 99.669 44.8195 98.4033 44.8195C96.77 44.8195 95.5952 46.4759 95.5952 48.41V48.6878C95.7447 51.3663 97.3624 53.0069 99.5302 53.0069H99.7491Z" fill="#070707"/>
<path d="M112.14 51.8223C112.14 53.0226 112.519 53.248 112.797 53.248C112.866 53.2478 112.934 53.2372 113 53.2166C112.872 53.5244 112.648 53.7846 112.36 53.9597C112.073 54.1349 111.736 54.216 111.398 54.1915C110.112 54.1915 109.946 53.0855 109.946 52.1263V51.513C109.167 53.0069 107.645 54.1915 105.99 54.1915C105.71 54.2061 105.429 54.1635 105.167 54.0663C104.904 53.9691 104.665 53.8195 104.464 53.6268C104.264 53.4342 104.105 53.2028 104 52.9472C103.896 52.6916 103.846 52.4175 103.854 52.142C103.854 49.2853 109.044 48.7979 109.973 48.735V46.8376C109.973 45.5534 109.145 44.8195 108.169 44.8195C107.927 44.7958 107.683 44.8203 107.452 44.8916C107.221 44.9629 107.007 45.0794 106.823 45.2342C106.638 45.389 106.488 45.5789 106.381 45.7923C106.273 46.0057 106.211 46.2383 106.198 46.4759C106.182 46.7806 106.251 47.0838 106.396 47.3534C106.542 47.6229 106.76 47.8485 107.026 48.0064C106.78 48.0789 106.524 48.1108 106.268 48.1008C105.536 48.1008 104.548 47.8754 104.548 46.8376C104.548 45.0973 107.442 44.6413 108.286 44.6413H108.35C110.8 44.6413 112.135 45.8312 112.135 47.7286V51.7699L112.14 51.8223ZM109.956 51.2981V48.8345C108.83 48.9761 106.001 49.6785 106.001 51.7699C106.001 52.2941 106.332 52.9859 107.49 52.9859C108.019 52.9442 108.526 52.7642 108.961 52.4646C109.394 52.165 109.738 51.7568 109.956 51.2824V51.2981Z" fill="#070707"/>
<path d="M20.6176 64.9579V61.2888H22.294C22.6439 61.2666 22.9918 61.3547 23.287 61.5404C23.3995 61.6189 23.4902 61.7239 23.5508 61.8456C23.6114 61.9674 23.64 62.1021 23.6341 62.2375C23.6452 62.4215 23.5986 62.6044 23.5006 62.7617C23.4098 62.8979 23.2822 63.0068 23.1322 63.0762C22.9778 63.1507 22.8077 63.1884 22.6357 63.1862L22.7318 63.029C22.9263 63.0249 23.1194 63.0625 23.2977 63.139C23.4563 63.2066 23.5916 63.3176 23.6874 63.4588C23.787 63.6158 23.8372 63.7981 23.8316 63.9829C23.8384 64.124 23.8092 64.2645 23.7468 64.3918C23.6843 64.519 23.5905 64.6289 23.4739 64.7116C23.1544 64.9059 22.7811 64.9976 22.4061 64.9736L20.6176 64.9579ZM21.1515 64.5334H22.3794C22.6148 64.5464 22.8494 64.4956 23.0574 64.3866C23.1305 64.3323 23.1896 64.2622 23.2304 64.1817C23.2711 64.1012 23.2924 64.0126 23.2924 63.9227C23.2924 63.8328 23.2711 63.7442 23.2304 63.6637C23.1896 63.5832 23.1305 63.513 23.0574 63.4588C22.8503 63.3474 22.6151 63.2965 22.3794 63.312H21.1034V62.8875H22.246C22.4659 62.8986 22.6845 62.8477 22.8759 62.7407C22.9472 62.6909 23.0049 62.6248 23.044 62.548C23.0831 62.4712 23.1024 62.3862 23.1001 62.3004C23.1059 62.2141 23.0882 62.1278 23.0488 62.0504C23.0094 61.9731 22.9497 61.9074 22.8759 61.8601C22.6855 61.7509 22.4661 61.6997 22.246 61.7134H21.1515V64.5334Z" fill="#070707"/>
<path d="M28.1614 64.9998C27.8912 65.0021 27.6231 64.9541 27.3712 64.8583C27.1352 64.7672 26.9194 64.6319 26.7359 64.4599C26.5593 64.2908 26.418 64.0897 26.3195 63.8677C26.2204 63.6316 26.1696 63.3787 26.17 63.1234C26.1684 62.868 26.2193 62.6148 26.3195 62.3791C26.4165 62.1547 26.5581 61.9516 26.7359 61.7815C26.9186 61.6125 27.1324 61.4791 27.3659 61.3884C27.6194 61.2919 27.8894 61.2439 28.1614 61.2468C28.4313 61.2421 28.6995 61.2884 28.9515 61.3831C29.185 61.4738 29.3988 61.6072 29.5815 61.7762C29.7627 61.9435 29.9048 62.1474 29.9979 62.3738C30.1903 62.8556 30.1903 63.391 29.9979 63.8729C29.9034 64.0971 29.7614 64.2989 29.5815 64.4652C29.3988 64.6343 29.185 64.7677 28.9515 64.8583C28.6998 64.9549 28.4315 65.0029 28.1614 64.9998ZM28.1614 64.5334C28.3586 64.5346 28.5542 64.499 28.738 64.4285C28.9092 64.3589 29.0651 64.2575 29.1971 64.1297C29.3259 64.0011 29.4292 63.85 29.5014 63.6842C29.5665 63.508 29.5955 63.321 29.5868 63.1338C29.5912 62.9417 29.5548 62.7506 29.4801 62.573C29.4092 62.4049 29.3059 62.2518 29.1757 62.1222C29.045 61.9944 28.8886 61.8945 28.7166 61.8287C28.3455 61.6881 27.9345 61.6881 27.5634 61.8287C27.3905 61.8956 27.2326 61.9954 27.0989 62.1222C26.9688 62.2518 26.8655 62.4049 26.7946 62.573C26.718 62.7503 26.6799 62.9413 26.6825 63.1338C26.681 63.3263 26.7191 63.5171 26.7946 63.6947C26.8668 63.8605 26.9701 64.0116 27.0989 64.1403C27.2338 64.267 27.3913 64.3682 27.5634 64.439C27.7545 64.5085 27.9577 64.5406 28.1614 64.5334Z" fill="#070707"/>
<path d="M34.4453 64.9998C34.1769 65.0025 33.9105 64.9544 33.6606 64.8582C33.4292 64.7699 33.218 64.6373 33.0393 64.4682C32.8605 64.299 32.7179 64.0966 32.6194 63.8729C32.5198 63.6351 32.469 63.3804 32.47 63.1233C32.4684 62.8662 32.5192 62.6113 32.6194 62.3738C32.7164 62.1494 32.858 61.9463 33.0359 61.7762C33.2186 61.6072 33.4324 61.4738 33.6659 61.3831C33.9162 61.2887 34.1826 61.2425 34.4507 61.2468C34.7243 61.2442 34.996 61.2922 35.2515 61.3883C35.49 61.4809 35.7024 61.6283 35.8708 61.8181L35.5238 62.1484C35.3901 62.0052 35.2261 61.8925 35.0433 61.8181C34.862 61.7458 34.6677 61.7101 34.472 61.7133C34.2729 61.7101 34.0751 61.7458 33.8901 61.8181C33.7149 61.8838 33.5551 61.9837 33.4203 62.1117C33.2903 62.2394 33.1869 62.3907 33.116 62.5573C32.9666 62.9186 32.9666 63.3228 33.116 63.6841C33.1869 63.8523 33.2902 64.0054 33.4203 64.135C33.5565 64.2612 33.7159 64.3608 33.8901 64.4285C34.0757 64.4986 34.2731 64.5341 34.472 64.5333C34.6681 64.5348 34.8624 64.4974 35.0433 64.4232C35.2261 64.3489 35.3901 64.2362 35.5238 64.093L35.8708 64.4232C35.701 64.6116 35.489 64.7587 35.2515 64.853C34.9946 64.9514 34.7211 65.0011 34.4453 64.9998Z" fill="#070707"/>
<path d="M37.7982 64.9579L39.4853 61.2888H40.0191L41.7169 64.9579H41.1563L39.6401 61.5613H39.8537L38.3428 64.9369L37.7982 64.9579ZM38.5135 64.0407L38.6577 63.6213H40.7613L40.916 64.0407H38.5135Z" fill="#070707"/>
<path d="M45.1711 64.9998C44.8934 64.999 44.6177 64.9547 44.3542 64.8688C44.1282 64.8023 43.919 64.6898 43.7403 64.5386L43.9378 64.1297C44.0976 64.2591 44.2779 64.3618 44.4717 64.4338C44.6925 64.5127 44.9254 64.5535 45.1604 64.5543C45.3413 64.5597 45.5218 64.5348 45.6943 64.4809C45.8117 64.4421 45.9155 64.3712 45.9932 64.2765C46.0564 64.1932 46.0901 64.092 46.0893 63.9882C46.093 63.9318 46.084 63.8753 46.0627 63.8227C46.0415 63.7701 46.0086 63.7228 45.9666 63.6842C45.8724 63.5999 45.7616 63.5357 45.6409 63.4955C45.4964 63.4447 45.3483 63.4044 45.1978 63.3749L44.7173 63.2492C44.5634 63.2058 44.4148 63.146 44.2742 63.071C44.1427 62.9986 44.0309 62.8961 43.9485 62.7722C43.8623 62.6279 43.8196 62.4624 43.8257 62.2952C43.8251 62.1095 43.8789 61.9276 43.9805 61.771C44.0959 61.6013 44.2591 61.4684 44.4504 61.3884C44.7059 61.2862 44.9806 61.2379 45.2565 61.2468C45.4747 61.246 45.692 61.2742 45.9025 61.3307C46.0933 61.3801 46.274 61.4617 46.4364 61.5718L46.2602 61.9911C46.1054 61.8871 45.934 61.8091 45.7531 61.7606C45.5791 61.7137 45.3995 61.6907 45.2191 61.6924C45.0378 61.6855 44.8566 61.7122 44.6852 61.771C44.5686 61.8111 44.4664 61.884 44.3916 61.9807C44.3274 62.0654 44.2935 62.1686 44.2955 62.2742C44.2935 62.3317 44.3039 62.389 44.326 62.4423C44.3481 62.4956 44.3813 62.5437 44.4236 62.5835C44.5195 62.6642 44.6299 62.7265 44.7494 62.7669C44.8828 62.8089 45.027 62.8508 45.1871 62.8875C45.3473 62.9241 45.5127 62.9661 45.6729 63.0133C45.8276 63.0544 45.9765 63.1142 46.1161 63.1915C46.2467 63.2607 46.357 63.3618 46.4364 63.485C46.5258 63.6261 46.5687 63.7909 46.5592 63.9568C46.5636 64.1429 46.5096 64.326 46.4043 64.4809C46.2876 64.6514 46.1224 64.7845 45.9292 64.8635C45.688 64.957 45.4304 65.0033 45.1711 64.9998Z" fill="#070707"/>
<path d="M52.4641 64.9579V61.2887H54.0391C54.409 61.2778 54.7759 61.357 55.1068 61.5194C55.4013 61.6634 55.6477 61.8871 55.8169 62.1641C55.9906 62.4544 56.0776 62.7868 56.0678 63.1234C56.0765 63.4597 55.9895 63.7919 55.8169 64.0825C55.6448 64.3572 55.3992 64.5803 55.1068 64.7272C54.7749 64.8872 54.4087 64.9663 54.0391 64.9579H52.4641ZM52.998 64.5018H54.007C54.2861 64.5091 54.5627 64.4497 54.8132 64.3289C55.0359 64.2211 55.2214 64.0516 55.3471 63.8414C55.4695 63.6202 55.5337 63.3724 55.5337 63.1207C55.5337 62.8689 55.4695 62.6212 55.3471 62.4C55.2214 62.1911 55.0356 62.0234 54.8132 61.9178C54.5627 61.7969 54.2861 61.7376 54.007 61.7448H52.998V64.5018Z" fill="#070707"/>
<path d="M59.2231 64.5018H61.4014V64.9579H58.6892V61.2888H61.3266V61.7448H59.2231V64.5018ZM59.175 62.8717H61.0863V63.3173H59.1644L59.175 62.8717Z" fill="#070707"/>
<path d="M64.0815 64.9579V61.2888H64.6154V64.5018H66.6388V64.9579H64.0815Z" fill="#070707"/>
<path d="M73.0613 64.9579V61.7448H71.7642V61.2888H74.8556V61.7448H73.5743V64.9579H73.0613Z" fill="#070707"/>
<path d="M78.9023 64.9998C78.6325 65.0021 78.3642 64.9541 78.1124 64.8583C77.8763 64.7672 77.6602 64.6319 77.4771 64.4599C77.3004 64.2908 77.1587 64.0897 77.0607 63.8677C76.9612 63.6316 76.9104 63.3787 76.9111 63.1234C76.9097 62.868 76.9605 62.6148 77.0607 62.3791C77.1573 62.1547 77.2989 61.9516 77.4771 61.7815C77.6595 61.6125 77.8734 61.4791 78.1067 61.3884C78.3606 61.2919 78.6304 61.2439 78.9023 61.2468C79.172 61.2421 79.4403 61.2884 79.6921 61.3831C79.9261 61.4738 80.14 61.6072 80.3224 61.7762C80.5034 61.9435 80.6458 62.1474 80.7388 62.3738C80.9313 62.8556 80.9313 63.391 80.7388 63.8729C80.6444 64.0971 80.5027 64.2989 80.3224 64.4652C80.14 64.6343 79.9261 64.7677 79.6921 64.8583C79.441 64.9549 79.1727 65.0029 78.9023 64.9998ZM78.9023 64.5334C79.0997 64.5346 79.295 64.499 79.4789 64.4285C79.6499 64.3589 79.8059 64.2575 79.9382 64.1297C80.067 64.0011 80.17 63.85 80.2423 63.6842C80.316 63.5062 80.3525 63.3155 80.3489 63.1234C80.3532 62.9312 80.3174 62.7402 80.2423 62.5625C80.1715 62.3944 80.0684 62.2413 79.9382 62.1117C79.8073 61.9838 79.6506 61.884 79.4789 61.8182C79.1076 61.6776 78.6969 61.6776 78.3256 61.8182C78.1525 61.8851 77.9951 61.9849 77.8613 62.1117C77.7311 62.2413 77.628 62.3944 77.5572 62.5625C77.4806 62.7398 77.442 62.9308 77.4449 63.1234C77.4434 63.3158 77.4814 63.5066 77.5572 63.6842C77.6295 63.85 77.7325 64.0011 77.8613 64.1297C77.9958 64.2564 78.1532 64.3578 78.3256 64.4285C78.5095 64.499 78.7048 64.5346 78.9023 64.5334Z" fill="#070707"/>
<path d="M83.5098 64.9579V61.2888H84.9671C85.254 61.279 85.5402 61.3309 85.8049 61.4408C86.026 61.529 86.2127 61.6831 86.3394 61.8811C86.4617 62.089 86.5261 62.325 86.5261 62.5651C86.5261 62.8053 86.4617 63.0412 86.3394 63.2492C86.2092 63.4445 86.0238 63.5977 85.8049 63.6895C85.5395 63.7969 85.254 63.8487 84.9671 63.8414H83.8031L84.0435 63.6004V64.9579H83.5098ZM84.0435 63.6528L83.8031 63.3959H84.9507C85.229 63.4153 85.5051 63.3373 85.7305 63.1758C85.8128 63.0966 85.8786 63.0021 85.9237 62.8977C85.9688 62.7933 85.9917 62.6811 85.9917 62.5677C85.9917 62.4544 85.9688 62.3422 85.9237 62.2378C85.8786 62.1333 85.8128 62.0388 85.7305 61.9597C85.5044 61.8001 85.2283 61.7239 84.9507 61.7448H83.8031L84.0435 61.4827V63.6528ZM86.0081 64.9579L85.058 63.6265H85.6447L86.6062 64.9579H86.0081Z" fill="#070707"/>
<path d="M90.8982 64.9998C90.6285 65.0021 90.3602 64.9541 90.1084 64.8583C89.8723 64.7672 89.6569 64.6319 89.4731 64.4599C89.2963 64.2908 89.1554 64.0897 89.0567 63.8677C88.9572 63.6316 88.9064 63.3787 88.9071 63.1234C88.9057 62.868 88.9565 62.6148 89.0567 62.3791C89.154 62.1547 89.2949 61.9516 89.4731 61.7815C89.6555 61.6125 89.8694 61.4791 90.1034 61.3884C90.3567 61.2919 90.6264 61.2439 90.8982 61.2468C91.1687 61.2421 91.437 61.2884 91.6888 61.3831C91.9221 61.4738 92.136 61.6072 92.3184 61.7762C92.498 61.945 92.6397 62.1485 92.7348 62.3738C92.9273 62.8556 92.9273 63.391 92.7348 63.8729C92.6389 64.096 92.4973 64.2976 92.3184 64.4652C92.136 64.6343 91.9221 64.7677 91.6888 64.8583C91.437 64.9549 91.1687 65.0029 90.8982 64.9998ZM90.8982 64.5334C91.0957 64.5346 91.2917 64.499 91.4749 64.4285C91.6466 64.3589 91.8026 64.2575 91.9342 64.1297C92.063 64.0011 92.166 63.85 92.2383 63.6842C92.312 63.5062 92.3485 63.3155 92.3456 63.1234C92.3499 62.9312 92.3134 62.7402 92.2383 62.5625C92.1675 62.3944 92.0644 62.2413 91.9342 62.1117C91.8033 61.9838 91.6473 61.884 91.4749 61.8182C91.1043 61.6776 90.6929 61.6776 90.3223 61.8182C90.1492 61.8851 89.9911 61.9849 89.8573 62.1117C89.7271 62.2413 89.624 62.3944 89.5532 62.5625C89.4766 62.7398 89.4387 62.9308 89.4409 63.1234C89.4394 63.3158 89.4774 63.5066 89.5532 63.6842C89.6255 63.85 89.7285 64.0011 89.8573 64.1297C89.9925 64.2564 90.1499 64.3578 90.3223 64.4285C90.5055 64.499 90.7015 64.5346 90.8982 64.5334Z" fill="#070707"/>
</svg>
