<svg width="137" height="137" viewBox="0 0 137 137" fill="none" xmlns="http://www.w3.org/2000/svg">
<circle cx="68.5007" cy="68.5002" r="67.6277" fill="white"/>
<circle cx="68.4995" cy="68.5" r="42.6574" stroke="#070707" stroke-width="1.38723"/>
<g filter="url(#filter0_ii_258_3)">
<circle cx="68.4994" cy="68.4999" r="37.8021" fill="url(#paint0_linear_258_3)"/>
</g>
<path d="M74.4988 63.5696L73.5 62.5708L73.0006 63.0702L72.5012 62.5708L72.0018 63.0702L71.5024 62.5708L71.0029 63.0702L70.5035 62.5708L70.0041 63.0702L69.5047 62.5708L69.0053 63.0702L68.5059 62.5708L68.0065 63.0702L67.5071 62.5708L67.0077 63.0702L66.5083 62.5708L66.0089 63.0702L65.5095 62.5708L65.0101 63.0702L64.5107 62.5708L64.0113 63.0702L63.5119 62.5708L63.0125 63.0702L63.5119 63.5696L63.0125 64.069L63.5119 64.5684L63.0125 65.0678L63.5119 65.5672L64.0113 65.0678L64.5107 65.5672L65.0101 65.0678L65.5095 65.5672L66.0089 65.0678L66.5083 65.5672L67.0077 65.0678L67.5071 65.5672L68.0065 65.0678L68.5059 65.5672L69.0053 65.0678L69.5047 65.5672L62.0137 73.0583L64.0113 75.0559L71.5024 67.5648L72.0018 68.0642L71.5024 68.5637L72.0018 69.0631L71.5024 69.5625L72.0018 70.0619L71.5024 70.5613L72.0018 71.0607L71.5024 71.5601L72.0018 72.0595L71.5024 72.5589L72.0018 73.0583L71.5024 73.5577L72.0018 74.0571L72.5012 73.5577L73.0006 74.0571L73.5 73.5577L73.9994 74.0571L74.4988 73.5577L73.9994 73.0583L74.4988 72.5589L73.9994 72.0595L74.4988 71.5601L73.9994 71.0607L74.4988 70.5613L73.9994 70.0619L74.4988 69.5625L73.9994 69.0631L74.4988 68.5637L73.9994 68.0642L74.4988 67.5648L73.9994 67.0654L74.4988 66.566L73.9994 66.0666L74.4988 65.5672L73.9994 65.0678L74.4988 64.5684L73.9994 64.069L74.4988 63.5696Z" fill="white"/>
<path d="M98.5529 119.103L96.8931 116.381L91.4375 113.442L92.9324 112.531L96.8047 114.752L96.6027 110.292L98.0667 109.399L98.1755 115.585L99.8417 118.317L98.5529 119.103Z" fill="#070707"/>
<path d="M88.8443 123.78L85.4648 115.939L88.3592 114.692C89.1798 114.338 89.9433 114.197 90.6495 114.27C91.3526 114.335 91.9795 114.6 92.5302 115.064C93.085 115.517 93.5393 116.154 93.893 116.975C94.2404 117.78 94.3921 118.539 94.3481 119.251C94.3115 119.959 94.0771 120.595 93.6449 121.158C93.2095 121.714 92.5777 122.17 91.7497 122.527L88.8443 123.78ZM89.6856 121.918L91.1716 121.277C91.7556 121.026 92.1772 120.712 92.4365 120.338C92.7 119.952 92.8286 119.529 92.8223 119.067C92.8203 118.594 92.7061 118.096 92.4799 117.571C92.26 117.06 91.9827 116.641 91.648 116.312C91.3133 115.983 90.9154 115.782 90.4543 115.709C89.9975 115.625 89.4771 115.709 88.893 115.961L87.3959 116.606L89.6856 121.918Z" fill="#070707"/>
<path d="M83.7133 125.379C82.927 125.587 82.2409 125.605 81.6549 125.435C81.0667 125.257 80.5781 124.92 80.189 124.423C79.7998 123.926 79.5046 123.297 79.3034 122.534L78.0898 117.933L79.5494 117.548L80.7722 122.184C80.8831 122.604 81.0451 122.982 81.2584 123.317C81.4774 123.642 81.7597 123.876 82.1052 124.018C82.4585 124.158 82.8842 124.162 83.3824 124.031C83.8884 123.897 84.2488 123.685 84.4638 123.396C84.6845 123.096 84.8021 122.753 84.8166 122.366C84.8389 121.977 84.7946 121.572 84.6837 121.152L83.461 116.517L84.9322 116.128L86.1457 120.729C86.3449 121.484 86.3978 122.174 86.3043 122.798C86.2108 123.422 85.9561 123.955 85.54 124.398C85.1239 124.841 84.515 125.168 83.7133 125.379Z" fill="#070707"/>
<path d="M75.1546 126.94L74.2781 119.833L71.6294 120.16L71.4609 118.794L78.2444 117.957L78.4129 119.323L75.7642 119.65L76.6407 126.757L75.1546 126.94Z" fill="#070707"/>
<path d="M68.702 127.367C68.1304 127.365 67.5913 127.279 67.0846 127.108C66.586 126.93 66.1683 126.651 65.8313 126.271C65.4944 125.884 65.2746 125.38 65.1719 124.76L66.7055 124.764C66.8011 125.079 66.9533 125.325 67.1621 125.502C67.3789 125.68 67.6321 125.806 67.9217 125.879C68.2113 125.945 68.505 125.978 68.8029 125.979C69.0686 125.979 69.3182 125.948 69.5519 125.884C69.7936 125.813 69.9912 125.696 70.1447 125.536C70.3062 125.375 70.3874 125.162 70.3882 124.897C70.3888 124.695 70.345 124.534 70.2569 124.413C70.1768 124.284 70.0604 124.179 69.9077 124.098C69.763 124.009 69.5861 123.94 69.377 123.891C69.1759 123.826 68.9587 123.769 68.7254 123.72C68.4921 123.671 68.2628 123.618 68.0376 123.561C67.8123 123.504 67.5992 123.431 67.3982 123.342C67.1409 123.252 66.8917 123.151 66.6505 123.037C66.4174 122.916 66.2126 122.77 66.036 122.601C65.8675 122.431 65.7313 122.221 65.6274 121.972C65.5235 121.722 65.4721 121.424 65.4732 121.077C65.4744 120.683 65.5399 120.345 65.6696 120.064C65.8073 119.774 65.9852 119.537 66.2031 119.353C66.4291 119.168 66.6791 119.024 66.9532 118.921C67.2352 118.817 67.5253 118.741 67.8233 118.694C68.1294 118.646 68.4193 118.623 68.693 118.624C69.2243 118.626 69.7071 118.716 70.1412 118.894C70.5835 119.073 70.9449 119.348 71.2255 119.719C71.5061 120.09 71.6656 120.565 71.7041 121.145L70.2429 121.141C70.2116 120.867 70.1156 120.649 69.9551 120.488C69.7947 120.318 69.5938 120.197 69.3525 120.124C69.1112 120.042 68.8497 120.001 68.5679 120C68.3747 120 68.1815 120.015 67.9882 120.047C67.8029 120.078 67.6337 120.134 67.4805 120.214C67.3353 120.294 67.2142 120.403 67.1172 120.539C67.0282 120.668 66.9834 120.833 66.9828 121.034C66.9822 121.211 67.026 121.368 67.1142 121.505C67.2023 121.634 67.3227 121.743 67.4754 121.832C67.6361 121.921 67.8251 122.003 68.0422 122.076C68.3236 122.189 68.6293 122.275 68.9592 122.332C69.2971 122.39 69.6149 122.467 69.9124 122.565C70.202 122.646 70.4674 122.747 70.7085 122.869C70.9577 122.982 71.1706 123.124 71.3472 123.294C71.5238 123.455 71.66 123.657 71.7559 123.899C71.8598 124.132 71.9113 124.414 71.9102 124.744C71.9087 125.227 71.8189 125.638 71.6407 125.975C71.4706 126.305 71.2323 126.574 70.9257 126.782C70.6272 126.991 70.2846 127.142 69.8979 127.238C69.5192 127.325 69.1206 127.368 68.702 127.367Z" fill="#070707"/>
<path d="M54.8379 125.719L56.4423 117.334L62.3607 118.466L62.102 119.818L57.6662 118.97L57.2441 121.176L61.0988 121.913L60.8446 123.242L56.9899 122.504L56.5792 124.651L61.015 125.5L60.7563 126.852L54.8379 125.719Z" fill="#070707"/>
<path d="M50.2646 124.432C49.7223 124.251 49.2371 124.001 48.8092 123.68C48.3915 123.355 48.082 122.959 47.8806 122.493C47.6817 122.02 47.6305 121.473 47.7269 120.851L49.1821 121.336C49.1746 121.664 49.2423 121.945 49.385 122.179C49.5353 122.416 49.7366 122.614 49.9887 122.775C50.2434 122.927 50.512 123.051 50.7946 123.145C51.0467 123.228 51.2937 123.277 51.5356 123.289C51.7876 123.297 52.0116 123.248 52.2076 123.144C52.4112 123.042 52.5549 122.865 52.6388 122.613C52.7023 122.422 52.7111 122.255 52.6652 122.112C52.6295 121.965 52.5517 121.829 52.432 121.704C52.3225 121.574 52.176 121.453 51.9926 121.341C51.822 121.217 51.6335 121.095 51.4273 120.975C51.221 120.856 51.0198 120.734 50.8237 120.609C50.6276 120.484 50.448 120.348 50.285 120.201C50.0685 120.035 49.8635 119.861 49.6699 119.678C49.4865 119.49 49.3374 119.287 49.2227 119.071C49.1157 118.857 49.0519 118.615 49.0314 118.346C49.0108 118.076 49.0552 117.777 49.1645 117.448C49.289 117.074 49.4569 116.773 49.668 116.547C49.8894 116.315 50.1324 116.145 50.3971 116.038C50.6694 115.934 50.952 115.875 51.2447 115.862C51.5451 115.852 51.8443 115.871 52.1422 115.919C52.4477 115.97 52.7303 116.038 52.99 116.125C53.4942 116.292 53.9246 116.529 54.2812 116.834C54.6454 117.142 54.9027 117.516 55.0532 117.956C55.2037 118.397 55.2065 118.898 55.0617 119.461L53.6753 119C53.7311 118.73 53.7081 118.493 53.6061 118.289C53.5067 118.078 53.3539 117.9 53.1476 117.755C52.9438 117.602 52.7083 117.482 52.4409 117.393C52.2576 117.332 52.0691 117.286 51.8756 117.256C51.6898 117.228 51.5116 117.228 51.341 117.256C51.1781 117.287 51.0292 117.352 50.8944 117.451C50.7697 117.545 50.6756 117.688 50.612 117.879C50.5561 118.047 50.5486 118.21 50.5894 118.368C50.6328 118.518 50.7131 118.659 50.8302 118.791C50.9551 118.926 51.1092 119.062 51.2925 119.2C51.5243 119.396 51.7879 119.572 52.0833 119.73C52.3864 119.89 52.664 120.063 52.9161 120.249C53.1657 120.417 53.386 120.596 53.5771 120.787C53.7783 120.973 53.9363 121.174 54.0509 121.39C54.1682 121.599 54.2345 121.833 54.2499 122.092C54.2755 122.347 54.2363 122.631 54.1321 122.944C53.9796 123.402 53.766 123.764 53.4912 124.029C53.2266 124.289 52.9161 124.47 52.5597 124.572C52.211 124.676 51.8381 124.713 51.4409 124.683C51.0539 124.648 50.6618 124.564 50.2646 124.432Z" fill="#070707"/>
<path d="M39.0996 119.44L45.8163 113.236L47.4293 114.034L46.5693 123.132L45.1078 122.41L45.3 120.74L41.7708 118.996L40.5502 120.157L39.0996 119.44ZM42.8085 117.986L45.4607 119.297L45.9432 114.996L42.8085 117.986Z" fill="#070707"/>
<path d="M35.8973 117.388C35.1649 116.89 34.6509 116.322 34.3552 115.683C34.064 115.037 33.9752 114.358 34.0888 113.647C34.2024 112.936 34.5013 112.224 34.9855 111.512C35.4698 110.799 36.0273 110.258 36.6581 109.889C37.2888 109.519 37.958 109.351 38.6655 109.384C39.3776 109.411 40.0931 109.669 40.8122 110.157C41.3448 110.519 41.7531 110.928 42.0371 111.384C42.321 111.84 42.4763 112.32 42.5031 112.825C42.541 113.328 42.4336 113.844 42.181 114.373L40.9726 113.552C41.1102 113.149 41.1015 112.753 40.9464 112.366C40.7914 111.978 40.4841 111.628 40.0247 111.316C39.5254 110.976 39.0434 110.819 38.5787 110.844C38.114 110.869 37.6873 111.017 37.2986 111.288C36.9165 111.564 36.5829 111.911 36.2978 112.331C36.0037 112.763 35.7975 113.217 35.6794 113.692C35.5679 114.171 35.5894 114.633 35.7439 115.079C35.8985 115.525 36.2221 115.915 36.7148 116.25C37.021 116.458 37.3168 116.596 37.602 116.663C37.8938 116.735 38.1706 116.743 38.4324 116.687C38.7053 116.629 38.9464 116.511 39.1557 116.332L40.424 117.194C40.0228 117.613 39.5693 117.893 39.0633 118.036C38.5641 118.183 38.0403 118.202 37.492 118.092C36.9549 117.98 36.4233 117.745 35.8973 117.388Z" fill="#070707"/>
<path d="M99.3945 29.5416L101.408 27.0701L102.363 20.9473L103.72 22.0533L102.915 26.4442L107.053 24.7688L108.382 25.8519L102.586 28.0142L100.565 30.495L99.3945 29.5416Z" fill="#070707"/>
<path d="M90.3145 23.7612L94.5358 16.3403L97.2754 17.8987C98.0521 18.3406 98.6243 18.8652 98.9919 19.4726C99.3636 20.073 99.5301 20.7327 99.4916 21.4517C99.464 22.1677 99.2293 22.9141 98.7875 23.6908C98.3536 24.4536 97.8395 25.0317 97.2451 25.4253C96.6577 25.8229 96.009 26.0188 95.2991 26.0132C94.5931 26.0006 93.8482 25.7714 93.0645 25.3256L90.3145 23.7612ZM92.3072 23.311L93.7137 24.1111C94.2665 24.4256 94.7705 24.5734 95.2258 24.5545C95.6921 24.5326 96.1077 24.38 96.4726 24.0967C96.8485 23.8104 97.1778 23.4189 97.4604 22.922C97.735 22.4392 97.9029 21.9651 97.9639 21.4996C98.0249 21.0342 97.9457 20.5955 97.7262 20.1835C97.5177 19.7685 97.137 19.4038 96.5842 19.0893L95.1672 18.2833L92.3072 23.311Z" fill="#070707"/>
<path d="M85.2864 21.8903C84.5209 21.6164 83.9446 21.2434 83.5577 20.7715C83.1735 20.2921 82.9615 19.7374 82.9218 19.1076C82.8821 18.4778 82.9951 17.7914 83.2609 17.0486L84.8637 12.5688L86.285 13.0774L84.6699 17.5912C84.5235 18.0005 84.4434 18.4036 84.4296 18.8006C84.4261 19.1927 84.5267 19.545 84.7312 19.8576C84.9433 20.1729 85.2919 20.4173 85.777 20.5909C86.2697 20.7672 86.6867 20.7966 87.0279 20.6793C87.3794 20.5571 87.6706 20.3407 87.9015 20.03C88.14 19.722 88.3324 19.3633 88.4789 18.954L90.0939 14.4402L91.5265 14.9527L89.9237 19.4325C89.6606 20.1677 89.3139 20.7662 88.8837 21.2279C88.4535 21.6896 87.9415 21.9852 87.3479 22.1148C86.7543 22.2445 86.0672 22.1696 85.2864 21.8903Z" fill="#070707"/>
<path d="M76.9342 19.5404L78.2155 12.495L75.5898 12.0175L75.8362 10.6631L82.5607 11.886L82.3144 13.2404L79.6887 12.7629L78.4075 19.8083L76.9342 19.5404Z" fill="#070707"/>
<path d="M70.5076 19.0163C69.9364 18.9975 69.4 18.8953 68.8987 18.7097C68.4056 18.5163 67.9964 18.2249 67.6709 17.8357C67.3456 17.4383 67.1409 16.9282 67.0566 16.3052L68.5894 16.3556C68.6757 16.6725 68.8205 16.923 69.0239 17.1069C69.2353 17.291 69.4846 17.4241 69.7719 17.506C70.0595 17.5799 70.3521 17.6217 70.6498 17.6315C70.9153 17.6402 71.1658 17.6163 71.4013 17.5596C71.645 17.4951 71.846 17.3849 72.0042 17.229C72.1704 17.0733 72.2579 16.8628 72.2666 16.5972C72.2732 16.3961 72.2342 16.2337 72.1497 16.1101C72.0735 15.9787 71.9602 15.8703 71.81 15.7848C71.6681 15.6915 71.4933 15.6173 71.2857 15.5622C71.0867 15.4912 70.8713 15.4277 70.6395 15.3718C70.4078 15.3158 70.1802 15.256 69.9567 15.1923C69.7333 15.1285 69.5224 15.0491 69.3242 14.954C69.0696 14.857 68.8235 14.7483 68.5858 14.6277C68.3564 14.4993 68.156 14.3477 67.9846 14.173C67.8212 13.9984 67.6912 13.7847 67.5948 13.5319C67.4984 13.279 67.4559 12.9796 67.4673 12.6336C67.4803 12.2393 67.5557 11.9035 67.6937 11.6261C67.84 11.3409 68.0249 11.1094 68.2482 10.9315C68.4796 10.7538 68.7337 10.6172 69.0108 10.5216C69.2958 10.4262 69.588 10.3593 69.8873 10.3208C70.1946 10.2826 70.4851 10.268 70.7586 10.277C71.2897 10.2944 71.7695 10.3988 72.1982 10.5901C72.6349 10.7817 72.988 11.0671 73.2575 11.4465C73.5269 11.8259 73.6722 12.3059 73.6934 12.8866L72.2331 12.8386C72.2099 12.5639 72.1205 12.3435 71.9648 12.1773C71.8095 12.003 71.6123 11.8757 71.3733 11.7954C71.1345 11.707 70.8743 11.6582 70.5927 11.6489C70.3996 11.6426 70.206 11.6523 70.0118 11.6781C69.8257 11.7042 69.6549 11.755 69.4994 11.8305C69.3519 11.9062 69.2276 12.0108 69.1266 12.1444C69.0338 12.2702 68.9841 12.4337 68.9775 12.6349C68.9717 12.8119 69.0108 12.9703 69.0948 13.11C69.1791 13.2416 69.2962 13.3542 69.4462 13.4477C69.6042 13.5415 69.7906 13.6282 70.0055 13.7078C70.2834 13.8297 70.5864 13.9242 70.9144 13.9914C71.2505 14.0588 71.5658 14.1457 71.8604 14.252C72.1474 14.342 72.4096 14.4513 72.647 14.5799C72.8928 14.7008 73.1014 14.8486 73.2728 15.0234C73.4445 15.1901 73.5747 15.3958 73.6633 15.6403C73.7603 15.8771 73.8033 16.1604 73.7925 16.4903C73.7766 16.9731 73.6746 17.3805 73.4865 17.7127C73.3067 18.037 73.0604 18.2988 72.7478 18.4979C72.4432 18.6973 72.0962 18.839 71.7068 18.9228C71.3258 18.9989 70.926 19.0301 70.5076 19.0163Z" fill="#070707"/>
<path d="M56.647 20.2679L55.0566 11.8798L60.977 10.7573L61.2334 12.1099L56.7961 12.9511L57.2145 15.1579L61.0704 14.4269L61.3224 15.7557L57.4664 16.4867L57.8736 18.6342L62.3109 17.7929L62.5673 19.1455L56.647 20.2679Z" fill="#070707"/>
<path d="M52.1652 21.8101C51.6267 22.0018 51.0902 22.103 50.5557 22.1139C50.0261 22.1144 49.5385 21.9931 49.0931 21.7501C48.645 21.4994 48.2676 21.0997 47.9611 20.5508L49.4059 20.0364C49.6023 20.2998 49.8287 20.4798 50.0853 20.5765C50.3495 20.6705 50.6302 20.703 50.9276 20.674C51.2222 20.6375 51.5098 20.5693 51.7904 20.4694C52.0407 20.3803 52.265 20.2663 52.4634 20.1273C52.6666 19.978 52.8133 19.8019 52.9034 19.5989C53.001 19.3932 53.0053 19.1653 52.9162 18.915C52.8487 18.7254 52.753 18.5885 52.6291 18.5045C52.5101 18.4101 52.365 18.3507 52.1939 18.3261C52.0277 18.2913 51.8379 18.2862 51.6245 18.3109C51.4133 18.3178 51.1896 18.3376 50.9535 18.3704C50.7173 18.4032 50.4836 18.4308 50.2524 18.4533C50.0211 18.4758 49.7958 18.4791 49.5765 18.4632C49.3041 18.4662 49.0353 18.4551 48.7699 18.4299C48.5095 18.3944 48.2675 18.3267 48.0439 18.2269C47.828 18.1243 47.6288 17.973 47.4465 17.773C47.2642 17.573 47.115 17.3099 46.999 16.9838C46.8667 16.6122 46.8139 16.272 46.8408 15.9634C46.8725 15.6444 46.9597 15.3613 47.1024 15.114C47.2527 14.8639 47.4392 14.6437 47.6619 14.4533C47.8923 14.2602 48.1397 14.091 48.4041 13.9456C48.6761 13.7975 48.941 13.6775 49.1989 13.5857C49.6994 13.4075 50.1842 13.329 50.6531 13.35C51.1297 13.3684 51.5628 13.5047 51.9524 13.7591C52.3421 14.0135 52.653 14.407 52.8854 14.9395L51.5088 15.4296C51.3867 15.1825 51.2228 15.0101 51.0171 14.9124C50.8087 14.8072 50.5786 14.7609 50.3268 14.7737C50.0722 14.7788 49.8123 14.8286 49.5468 14.9231C49.3648 14.9879 49.1882 15.0679 49.0169 15.163C48.8533 15.2555 48.7129 15.3653 48.5958 15.4924C48.4863 15.6168 48.409 15.7597 48.3639 15.9211C48.3237 16.0721 48.3373 16.2424 48.4048 16.432C48.4642 16.5989 48.5586 16.7319 48.6879 16.8312C48.8145 16.9228 48.9647 16.9847 49.1385 17.0168C49.3199 17.0463 49.5251 17.0587 49.7542 17.054C50.0575 17.0657 50.374 17.0427 50.7039 16.9851C51.0413 16.9248 51.3665 16.8902 51.6795 16.8813C51.9796 16.86 52.2636 16.8657 52.5316 16.8984C52.8045 16.9209 53.0528 16.9821 53.2763 17.082C53.4972 17.1743 53.6936 17.318 53.8656 17.5131C54.0425 17.6979 54.1863 17.9458 54.297 18.2568C54.459 18.7118 54.5133 19.1283 54.4598 19.5063C54.4113 19.8739 54.278 20.2077 54.06 20.5074C53.8495 20.8045 53.5785 21.0634 53.2469 21.284C52.9201 21.4943 52.5595 21.6697 52.1652 21.8101Z" fill="#070707"/>
<path d="M41.1443 27.0363L39.8691 17.9824L41.443 17.1104L48.4326 22.9981L47.0067 23.7881L45.7435 22.6795L42.3001 24.5874L42.5597 26.252L41.1443 27.0363ZM42.0613 23.1597L44.6491 21.7258L41.3882 18.8802L42.0613 23.1597Z" fill="#070707"/>
<path d="M38.2183 29.4624C37.5237 30.0116 36.8272 30.3314 36.1288 30.4216C35.4255 30.5056 34.7517 30.3867 34.1073 30.0648C33.4629 29.743 32.8736 29.2443 32.3393 28.5685C31.8051 27.8928 31.4565 27.1986 31.2933 26.4861C31.1302 25.7735 31.1707 25.0847 31.4146 24.4198C31.6536 23.7485 32.1142 23.1432 32.7962 22.604C33.3014 22.2046 33.8141 21.9379 34.3341 21.8038C34.8541 21.6698 35.359 21.6658 35.8486 21.7918C36.3395 21.9065 36.7995 22.1638 37.2284 22.5636L36.0822 23.4698C35.7391 23.2176 35.3594 23.1073 34.9431 23.1388C34.5268 23.1704 34.1007 23.3584 33.6649 23.7029C33.1913 24.0773 32.8966 24.4899 32.7808 24.9406C32.6651 25.3913 32.6782 25.8428 32.8202 26.295C32.9685 26.7422 33.1999 27.1647 33.5144 27.5625C33.839 27.973 34.2098 28.3059 34.627 28.561C35.0506 28.8111 35.4981 28.9294 35.9697 28.9157C36.4412 28.9021 36.9107 28.7106 37.378 28.3411C37.6685 28.1114 37.8887 27.8707 38.0385 27.6188C38.1946 27.362 38.2854 27.1004 38.3108 26.834C38.3376 26.5562 38.297 26.2907 38.1891 26.0374L39.3921 25.0863C39.6708 25.5946 39.8024 26.1114 39.7868 26.6369C39.7775 27.1574 39.6382 27.6626 39.3688 28.1527C39.1007 28.6314 38.7173 29.068 38.2183 29.4624Z" fill="#070707"/>
<path d="M13.0557 62.2893C13.2374 61.9036 13.7626 61.9036 13.9443 62.2893L15.5691 65.7373C15.6413 65.8904 15.7808 65.9966 15.9422 66.0212L19.5752 66.5741C19.9816 66.6359 20.1439 67.159 19.8498 67.4593L17.2209 70.1431C17.1041 70.2623 17.0509 70.4341 17.0784 70.6025L17.699 74.3922C17.7684 74.8161 17.3436 75.1394 16.9801 74.9392L13.7306 73.15C13.5862 73.0705 13.4138 73.0705 13.2694 73.15L10.0199 74.9392C9.65642 75.1394 9.23155 74.8161 9.30098 74.3922L9.92158 70.6025C9.94915 70.4341 9.89585 70.2623 9.77907 70.1431L7.15018 67.4593C6.85609 67.159 7.01837 66.6359 7.42479 66.5741L11.0578 66.0212C11.2192 65.9966 11.3587 65.8904 11.4309 65.7373L13.0557 62.2893Z" fill="#070707"/>
<path d="M123.056 62.2893C123.237 61.9036 123.763 61.9036 123.944 62.2893L125.569 65.7373C125.641 65.8904 125.781 65.9966 125.942 66.0212L129.575 66.5741C129.982 66.6359 130.144 67.159 129.85 67.4593L127.221 70.1431C127.104 70.2623 127.051 70.4341 127.078 70.6025L127.699 74.3922C127.768 74.8161 127.344 75.1394 126.98 74.9392L123.731 73.15C123.586 73.0705 123.414 73.0705 123.269 73.15L120.02 74.9392C119.656 75.1394 119.232 74.8161 119.301 74.3922L119.922 70.6025C119.949 70.4341 119.896 70.2623 119.779 70.1431L117.15 67.4593C116.856 67.159 117.018 66.6359 117.425 66.5741L121.058 66.0212C121.219 65.9966 121.359 65.8904 121.431 65.7373L123.056 62.2893Z" fill="#070707"/>
<defs>
<filter id="filter0_ii_258_3" x="29.31" y="27.9233" width="79.7652" height="79.7662" filterUnits="userSpaceOnUse" color-interpolation-filters="sRGB">
<feFlood flood-opacity="0" result="BackgroundImageFix"/>
<feBlend mode="normal" in="SourceGraphic" in2="BackgroundImageFix" result="shape"/>
<feColorMatrix in="SourceAlpha" type="matrix" values="0 0 0 0 0 0 0 0 0 0 0 0 0 0 0 0 0 0 127 0" result="hardAlpha"/>
<feOffset dx="2.77447" dy="1.38723"/>
<feGaussianBlur stdDeviation="2.08085"/>
<feComposite in2="hardAlpha" operator="arithmetic" k2="-1" k3="1"/>
<feColorMatrix type="matrix" values="0 0 0 0 0 0 0 0 0 0 0 0 0 0 0 0 0 0 0.15 0"/>
<feBlend mode="normal" in2="shape" result="effect1_innerShadow_258_3"/>
<feColorMatrix in="SourceAlpha" type="matrix" values="0 0 0 0 0 0 0 0 0 0 0 0 0 0 0 0 0 0 127 0" result="hardAlpha"/>
<feOffset dx="-1.38723" dy="-2.77447"/>
<feGaussianBlur stdDeviation="2.08085"/>
<feComposite in2="hardAlpha" operator="arithmetic" k2="-1" k3="1"/>
<feColorMatrix type="matrix" values="0 0 0 0 0 0 0 0 0 0 0 0 0 0 0 0 0 0 0.15 0"/>
<feBlend mode="normal" in2="effect1_innerShadow_258_3" result="effect2_innerShadow_258_3"/>
</filter>
<linearGradient id="paint0_linear_258_3" x1="30.6973" y1="34.0029" x2="111.596" y2="45.7295" gradientUnits="userSpaceOnUse">
<stop stop-color="#FFCC40"/>
<stop offset="0.466346" stop-color="#EC9122"/>
<stop offset="1" stop-color="#FF2CAE"/>
</linearGradient>
</defs>
</svg>
