<svg width="157" height="161" viewBox="0 0 157 161" fill="none" xmlns="http://www.w3.org/2000/svg">
<path d="M74.1552 1.65905C76.8218 0.0270363 80.1782 0.0270375 82.8448 1.65905L92.4314 7.52603C93.9823 8.47519 95.8013 8.89037 97.6105 8.70812L108.793 7.5816C111.904 7.26824 114.928 8.7245 116.622 11.3519L122.714 20.7973C123.699 22.3254 125.158 23.4887 126.867 24.1095L137.431 27.9465C140.37 29.0139 142.463 31.638 142.849 34.7404L144.239 45.8935C144.464 47.6978 145.274 49.3789 146.544 50.6797L154.397 58.7203C156.582 60.957 157.329 64.2292 156.331 67.1922L152.744 77.8439C152.164 79.5671 152.164 81.4329 152.744 83.1561L156.331 93.8079C157.329 96.7708 156.582 100.043 154.397 102.28L146.544 110.32C145.274 111.621 144.464 113.302 144.239 115.107L142.849 126.26C142.463 129.362 140.37 131.986 137.431 133.053L126.867 136.891C125.158 137.511 123.699 138.675 122.714 140.203L116.622 149.648C114.928 152.275 111.904 153.732 108.793 153.418L97.6105 152.292C95.8013 152.11 93.9823 152.525 92.4314 153.474L82.8448 159.341C80.1782 160.973 76.8218 160.973 74.1552 159.341L64.5686 153.474C63.0177 152.525 61.1987 152.11 59.3895 152.292L48.2068 153.418C45.0961 153.732 42.0721 152.275 40.3776 149.648L34.286 140.203C33.3005 138.675 31.8418 137.511 30.1327 136.891L19.5686 133.053C16.63 131.986 14.5374 129.362 14.1507 126.26L12.7606 115.107C12.5357 113.302 11.7261 111.621 10.4557 110.32L2.60257 102.28C0.418087 100.043 -0.328764 96.7708 0.668939 93.8078L4.25562 83.1561C4.83587 81.4329 4.83587 79.5671 4.25562 77.8439L0.668938 67.1921C-0.328765 64.2292 0.418089 60.957 2.60258 58.7203L10.4557 50.6797C11.7261 49.3789 12.5357 47.6978 12.7606 45.8935L14.1507 34.7404C14.5374 31.638 16.63 29.0139 19.5686 27.9465L30.1327 24.1095C31.8418 23.4887 33.3005 22.3254 34.286 20.7973L40.3776 11.3519C42.0721 8.72449 45.0961 7.26824 48.2068 7.5816L59.3895 8.70812C61.1987 8.89037 63.0177 8.47519 64.5686 7.52603L74.1552 1.65905Z" fill="url(#paint0_linear_989_381)"/>
<defs>
<linearGradient id="paint0_linear_989_381" x1="-3" y1="6.12569" x2="171.416" y2="31.4079" gradientUnits="userSpaceOnUse">
<stop stop-color="#FFCC40"/>
<stop offset="0.466346" stop-color="#EC9122"/>
<stop offset="1" stop-color="#FF2CAE"/>
</linearGradient>
</defs>
</svg>
