<svg width="28" height="24" viewBox="0 0 28 24" fill="none" xmlns="http://www.w3.org/2000/svg">
<path d="M27 1L25.8114 1.36364L4.53971 8.12161H1V15.8794H4.54064L6.36807 16.4554L6.34021 16.5456V16.5766C5.74407 18.6246 6.84814 20.9015 8.89379 21.5454C8.90307 21.5483 8.91421 21.5425 8.92164 21.5454C10.893 22.1709 13.0751 21.0315 13.6815 18.8787L13.7094 18.7875L25.8114 22.6373L27 23V1ZM25.1429 3.6066V20.3944L4.97429 13.969L4.86007 13.9399H2.85714V10.061H4.85914L4.97521 10.032L25.1429 3.6066ZM8.13793 17.0304L11.9395 18.2135L11.9116 18.3037V18.3327C11.5922 19.4673 10.4389 20.022 9.44536 19.6971C8.35893 19.3645 7.79993 18.1902 8.11007 17.1516V17.1225L8.13793 17.0304Z" fill="black" stroke="black" stroke-width="0.5"/>
</svg>
