<svg width="24" height="24" viewBox="0 0 24 24" fill="none" xmlns="http://www.w3.org/2000/svg">
<path d="M6.66667 12C6.28889 12 5.97244 12.128 5.71733 12.384C5.46222 12.64 5.33422 12.9564 5.33333 13.3333V17.3333C5.33333 17.7111 5.46133 18.028 5.71733 18.284C5.97333 18.54 6.28978 18.6676 6.66667 18.6667C7.04355 18.6658 7.36044 18.5378 7.61733 18.2827C7.87422 18.0276 8.00178 17.7111 8 17.3333V13.3333C8 12.9556 7.872 12.6391 7.616 12.384C7.36 12.1289 7.04355 12.0009 6.66667 12ZM17.3333 5.33333C16.9556 5.33333 16.6391 5.46133 16.384 5.71733C16.1289 5.97333 16.0009 6.28978 16 6.66667V17.3333C16 17.7111 16.128 18.028 16.384 18.284C16.64 18.54 16.9564 18.6676 17.3333 18.6667C17.7102 18.6658 18.0271 18.5378 18.284 18.2827C18.5409 18.0276 18.6684 17.7111 18.6667 17.3333V6.66667C18.6667 6.28889 18.5387 5.97244 18.2827 5.71733C18.0267 5.46222 17.7102 5.33422 17.3333 5.33333ZM12 14.6667C11.6222 14.6667 11.3058 14.7947 11.0507 15.0507C10.7956 15.3067 10.6676 15.6231 10.6667 16V17.3333C10.6667 17.7111 10.7947 18.028 11.0507 18.284C11.3067 18.54 11.6231 18.6676 12 18.6667C12.3769 18.6658 12.6938 18.5378 12.9507 18.2827C13.2076 18.0276 13.3351 17.7111 13.3333 17.3333V16C13.3333 15.6222 13.2053 15.3058 12.9493 15.0507C12.6933 14.7956 12.3769 14.6676 12 14.6667ZM2.66667 24C1.93333 24 1.30578 23.7391 0.784 23.2173C0.262222 22.6956 0.000888889 22.0676 0 21.3333V2.66667C0 1.93333 0.261333 1.30578 0.784 0.784C1.30667 0.262222 1.93422 0.000888889 2.66667 0H21.3333C22.0667 0 22.6947 0.261333 23.2173 0.784C23.74 1.30667 24.0009 1.93422 24 2.66667V21.3333C24 22.0667 23.7391 22.6947 23.2173 23.2173C22.6956 23.74 22.0676 24.0009 21.3333 24H2.66667ZM2.66667 21.3333H21.3333V2.66667H2.66667V21.3333ZM12 12C12.3778 12 12.6947 11.872 12.9507 11.616C13.2067 11.36 13.3342 11.0436 13.3333 10.6667C13.3324 10.2898 13.2044 9.97333 12.9493 9.71733C12.6942 9.46133 12.3778 9.33333 12 9.33333C11.6222 9.33333 11.3058 9.46133 11.0507 9.71733C10.7956 9.97333 10.6676 10.2898 10.6667 10.6667C10.6658 11.0436 10.7938 11.3604 11.0507 11.6173C11.3076 11.8742 11.624 12.0018 12 12Z" fill="black"/>
</svg>
