<svg width="24" height="24" viewBox="0 0 24 24" fill="none" xmlns="http://www.w3.org/2000/svg">
<path d="M11.999 0.25C14.2464 0.250008 16.4905 0.310073 18.6123 0.489258H18.6172C19.891 0.572035 21.0925 1.10986 22.0029 2.00391C22.9134 2.898 23.4721 4.08911 23.5771 5.36035C23.7864 8.52844 23.8164 11.7247 23.6074 14.8896C23.378 17.6987 20.9964 19.8783 18.1553 19.8496H14.9268L14.8643 19.8906L9.24609 23.5391V20.2354L15.0732 16.4502L18.1523 16.4492C19.2139 16.4795 20.0959 15.6911 20.2314 14.6416L20.2334 14.6338V14.625C20.4141 11.6151 20.4141 8.60306 20.1729 5.58984C20.1022 4.61771 19.3046 3.89944 18.3809 3.83105L18.374 3.83008L16.8213 3.76367C15.2494 3.70033 13.6245 3.6504 11.999 3.65039C10.104 3.65039 8.20689 3.69622 6.38965 3.80859L5.61621 3.86035C4.71778 3.92458 3.98935 4.56433 3.84473 5.44336L3.82422 5.62207C3.61338 8.63202 3.58285 11.6436 3.76367 14.6553L3.76465 14.6641C3.86813 15.7326 4.79572 16.4792 5.84473 16.4492V16.4502H8.74609V19.8496H5.84082C4.47222 19.8675 3.14775 19.3652 2.13574 18.4443C1.12387 17.5235 0.499613 16.2528 0.389648 14.8896C0.18066 11.6942 0.211106 8.52808 0.450195 5.33105C0.555224 4.05972 1.11387 2.86778 2.02441 1.97363C2.93489 1.07969 4.13638 0.542699 5.41016 0.459961L5.41211 0.458984C7.50595 0.309534 9.75168 0.25 11.999 0.25Z" fill="black" stroke="white" stroke-width="0.5"/>
</svg>
