<svg width="22" height="24" viewBox="0 0 22 24" fill="none" xmlns="http://www.w3.org/2000/svg">
<path d="M14.3 12C14.3 10.1925 12.8225 8.72727 11 8.72727C9.17746 8.72727 7.7 10.1925 7.7 12C7.7 13.8075 9.17746 15.2727 11 15.2727C12.8225 15.2727 14.3 13.8075 14.3 12ZM10.9065 17.4545C9.44786 17.4545 8.04932 18.0296 7.01787 19.0526C6.24968 19.8144 5.73238 20.7781 5.51826 21.8182H16.2948C16.0807 20.7781 15.5634 19.8144 14.7952 19.0526C13.7638 18.0296 12.3652 17.4546 10.9065 17.4545ZM16.5 12C16.5 13.6761 15.7369 15.1745 14.5374 16.1751C15.199 16.5259 15.8116 16.9732 16.3518 17.5089C17.5339 18.6813 18.2899 20.1963 18.526 21.8182H18.7C19.3075 21.8182 19.8 21.3298 19.8 20.7273V5.45455C19.8 4.85205 19.3075 4.36364 18.7 4.36364H3.3C2.69249 4.36364 2.2 4.85205 2.2 5.45455V20.7273C2.2 21.3251 2.68496 21.8097 3.28604 21.8171C3.52226 20.1956 4.27939 18.681 5.46133 17.5089C6.03307 16.9419 6.68646 16.4747 7.39277 16.1154C6.23377 15.1154 5.5 13.6432 5.5 12C5.5 8.98754 7.96243 6.54545 11 6.54545C14.0376 6.54545 16.5 8.98754 16.5 12ZM22 20.7273C22 22.5348 20.5225 24 18.7 24H3.3C1.47746 24 0 22.5348 0 20.7273V5.45455C0 3.64707 1.47746 2.18182 3.3 2.18182H5.5V1.09091C5.5 0.488417 5.99249 0 6.6 0C7.20751 0 7.7 0.488417 7.7 1.09091V2.18182H14.3V1.09091C14.3 0.488417 14.7925 0 15.4 0C16.0075 0 16.5 0.488417 16.5 1.09091V2.18182H18.7C20.5225 2.18182 22 3.64707 22 5.45455V20.7273Z" fill="black"/>
</svg>
