<svg width="13" height="12" viewBox="0 0 13 12" fill="none" xmlns="http://www.w3.org/2000/svg">
<path d="M6.9478 12L5.85689 12L5.85689 11.4545L5.31143 11.4545L5.31143 10.9091L4.76598 10.9091L4.76598 10.3636L4.22053 10.3636L4.22053 9.81818L3.67507 9.81818L3.67507 9.27273L3.12962 9.27273L3.12962 8.72727L2.58416 8.72727L2.58416 8.18182L2.03871 8.18182L2.03871 7.63636L1.49325 7.63636L1.49325 7.09091L0.947798 7.09091L0.947798 6.54545L0.402344 6.54545L0.402344 6L0.947798 6L0.947798 5.45454L1.49325 5.45455L1.49325 4.90909L2.03871 4.90909L2.03871 5.45455L2.58416 5.45455L2.58416 6L3.12962 6L3.12962 6.54545L3.67507 6.54545L3.67507 7.09091L4.22053 7.09091L4.22053 7.63636L4.76598 7.63636L4.76598 8.18182L5.31143 8.18182L5.31144 3.33767e-07L7.49325 5.24508e-07L7.49325 8.18182L8.03871 8.18182L8.03871 7.63636L8.58416 7.63636L8.58416 7.09091L9.12962 7.09091L9.12962 6.54545L9.67507 6.54545L9.67507 6L10.2205 6L10.2205 5.45455L10.766 5.45455L10.766 4.90909L11.3114 4.90909L11.3114 5.45455L11.8569 5.45455L11.8569 6L12.4023 6L12.4023 6.54545L11.8569 6.54545L11.8569 7.09091L11.3114 7.09091L11.3114 7.63636L10.766 7.63636L10.766 8.18182L10.2205 8.18182L10.2205 8.72727L9.67507 8.72727L9.67507 9.27273L9.12962 9.27273L9.12962 9.81818L8.58416 9.81818L8.58416 10.3636L8.03871 10.3636L8.03871 10.9091L7.49325 10.9091L7.49325 11.4545L6.9478 11.4545L6.9478 12Z" fill="white"/>
</svg>
