<svg width="28" height="28" viewBox="0 0 28 28" fill="none" xmlns="http://www.w3.org/2000/svg">
<g clip-path="url(#clip0_938_5633)">
<path d="M24.888 10.282V22.5553H3.11024V5.44423H17.5536C17.5181 5.18647 17.4999 4.92663 17.4991 4.66645C17.4997 4.40563 17.5178 4.14638 17.5536 3.88867H3.11024C2.69768 3.88867 2.30202 4.05256 2.0103 4.34428C1.71858 4.63601 1.55469 5.03167 1.55469 5.44423V22.5553C1.55469 22.9679 1.71858 23.3636 2.0103 23.6553C2.30202 23.947 2.69768 24.1109 3.11024 24.1109H24.888C25.3006 24.1109 25.6962 23.947 25.988 23.6553C26.2797 23.3636 26.4436 22.9679 26.4436 22.5553V9.59756C25.9614 9.90089 25.4371 10.1311 24.888 10.282Z" fill="black"/>
<path d="M6.22266 7.77734H18.4555C18.7485 8.23981 19.1051 8.65874 19.5149 9.02179H17.0338V13.3773H20.2227V9.55612C20.7038 9.86406 21.228 10.0987 21.7782 10.2522V20.2218H6.22266V7.77734ZM7.4671 18.6662H10.9671V14.6218H7.4671V18.6662ZM10.9671 9.02179H7.4671V13.3773H10.9671V9.02179ZM20.2227 18.6662V14.6218H17.0338V18.6662H20.2227ZM12.2115 9.02179V13.3773H15.7893V9.02179H12.2115ZM12.2115 18.6662H15.7893V14.6218H12.2115V18.6662Z" fill="black"/>
<path d="M23.3342 8.55512C25.482 8.55512 27.2231 6.81401 27.2231 4.66623C27.2231 2.51846 25.482 0.777344 23.3342 0.777344C21.1864 0.777344 19.4453 2.51846 19.4453 4.66623C19.4453 6.81401 21.1864 8.55512 23.3342 8.55512Z" fill="black"/>
</g>
<defs>
<clipPath id="clip0_938_5633">
<rect width="28" height="28" fill="white"/>
</clipPath>
</defs>
</svg>
