<svg width="30" height="26" viewBox="0 0 30 26" fill="none" xmlns="http://www.w3.org/2000/svg">
<path d="M17.8125 24H4.6875V10H8.4375V8H4.6875C3.65625 8 2.8125 8.9 2.8125 10V16H0V18H2.8125V24C2.8125 25.1 3.65625 26 4.6875 26H17.8125C18.8438 26 19.6875 25.1 19.6875 24V20H17.8125V24Z" fill="black"/>
<path d="M10.3125 16H19.6875V18H10.3125V16ZM10.3125 12H19.6875V14H10.3125V12ZM10.3125 8H19.6875V10H10.3125V8Z" fill="black"/>
<path d="M27.1875 8V2C27.1875 0.9 26.3438 0 25.3125 0H12.1875C11.1562 0 10.3125 0.9 10.3125 2V6H12.1875V2H25.3125V16H21.5625V18H25.3125C26.3438 18 27.1875 17.1 27.1875 16V10H30V8H27.1875Z" fill="black"/>
</svg>
