<svg width="28" height="28" viewBox="0 0 28 28" fill="none" xmlns="http://www.w3.org/2000/svg">
<path d="M14 16C15.1046 16 16 15.1046 16 14C16 12.8954 15.1046 12 14 12C12.8954 12 12 12.8954 12 14C12 15.1046 12.8954 16 14 16Z" fill="black"/>
<path d="M28 15V13H21.83L24.41 10.41L23 9L18 14L23 19L24.41 17.59L21.83 15H28ZM13 21.83V28H15V21.83L17.59 24.41L19 23L14 18L9 23L10.41 24.41L13 21.83ZM5 9L3.59 10.41L6.17 13H0V15H6.17L3.59 17.59L5 19L10 14L5 9ZM15 6.17V0H13V6.17L10.41 3.59L9 5L14 10L19 5L17.59 3.59L15 6.17Z" fill="black"/>
</svg>
