<svg width="26" height="26" viewBox="0 0 26 26" fill="none" xmlns="http://www.w3.org/2000/svg">
<path d="M18.8465 1.43403C22.3845 -0.251545 26.0644 3.2748 24.7141 6.81219L24.5684 7.15525L17.2342 22.5533C15.6564 25.8644 10.9754 25.7715 9.47429 22.5378L9.33885 22.2141L7.98319 18.5977L7.94062 18.501C7.89324 18.4067 7.83111 18.3206 7.75617 18.2456C7.65625 18.1457 7.53634 18.0683 7.40404 18.0186L3.78594 16.6618H3.78465C0.240037 15.3316 0.0270671 10.3953 3.4467 8.76612L18.8465 1.43532V1.43403ZM21.6468 5.57792C21.8783 4.78625 21.0539 4.04081 20.268 4.41459L20.2667 4.41588L4.86557 11.7467L4.86686 11.748C4.07837 12.1236 4.12625 13.2629 4.94554 13.5704H4.94425L8.56363 14.9271L8.77646 15.0136C9.26624 15.2278 9.71316 15.531 10.0921 15.9099C10.4711 16.2889 10.7743 16.7357 10.9886 17.2254L11.075 17.4382L12.4307 21.0546L12.4977 21.1991C12.8773 21.8766 13.9005 21.8737 14.2533 21.1333L21.5862 5.73656L21.6468 5.57792Z" fill="black" stroke="white" stroke-width="0.5" stroke-linecap="round" stroke-linejoin="round"/>
</svg>
