<svg width="16" height="13" viewBox="0 0 16 13" fill="none" xmlns="http://www.w3.org/2000/svg">
<g clip-path="url(#clip0_252_2)">
<path d="M9.05078 6.48894L10.6106 8.24653L12.7082 9.56778L13.0731 6.50003L12.7082 3.50146L10.5704 4.66216L9.05078 6.48894Z" fill="#00832D"/>
<path d="M0 9.28253V11.8967C0 12.4936 0.4915 12.9782 1.09713 12.9782H3.749L4.29812 11.003L3.749 9.28253L1.92963 8.74121L0 9.28253Z" fill="#0066DA"/>
<path d="M3.749 0L0 3.6957L1.92975 4.23572L3.749 3.6957L4.28813 1.99861L3.749 0Z" fill="#E94235"/>
<path d="M0 9.28371H3.74894V3.6958H0V9.28371Z" fill="#2684FC"/>
<path d="M15.1039 1.56494L12.709 3.50175V9.56801L15.1138 11.5123C15.4738 11.7903 16.0004 11.537 16.0004 11.0859V1.98279C16.0004 1.52668 15.4612 1.27456 15.1039 1.565" fill="#00AC47"/>
<path d="M9.05042 6.48926V9.28259H3.74805V12.9783H11.6108C12.2164 12.9783 12.7079 12.4937 12.7079 11.8968V9.5681L9.05042 6.48926Z" fill="#00AC47"/>
<path d="M11.6108 0H3.74805V3.6957H9.05042V6.48903L12.7079 3.5015V1.08159C12.7079 0.484574 12.2164 6.16114e-05 11.6108 6.16114e-05" fill="#FFBA00"/>
</g>
<defs>
<clipPath id="clip0_252_2">
<rect width="16" height="13" fill="white"/>
</clipPath>
</defs>
</svg>
