<svg width="55" height="52" viewBox="0 0 55 52" fill="none" xmlns="http://www.w3.org/2000/svg">
<path d="M27.5025 2.46831C24.2623 2.46831 21.329 3.72674 19.2048 5.76257C17.0827 7.79625 15.7673 10.6073 15.7673 13.7145C15.7673 16.8197 17.0805 19.6308 19.2048 21.6643C21.3269 23.698 24.2602 24.9586 27.5025 24.9586C30.7427 24.9586 33.676 23.7002 35.798 21.6643C37.9201 19.6307 39.2355 16.8196 39.2355 13.7145C39.2355 10.6094 37.9223 7.7983 35.798 5.76257C33.6759 3.7289 30.7426 2.46831 27.5003 2.46831H27.5025ZM48.5462 49.5293C49.2587 49.5293 49.8353 50.0818 49.8353 50.7646C49.8353 51.4475 49.2588 52 48.5462 52H6.45656C5.74409 52 5.16749 51.4475 5.16749 50.7646C5.16749 50.0818 5.74403 49.5293 6.45656 49.5293H17.7709V43.8233H5.6035C4.06232 43.8233 2.66144 43.2204 1.64422 42.2476C0.62919 41.2749 0 39.9324 0 38.4533V11.343C0 9.86602 0.62919 8.52352 1.64422 7.54869C2.65926 6.57595 4.06013 5.97298 5.6035 5.97298H15.6859C16.188 5.27126 16.7557 4.61579 17.3805 4.01702C19.9696 1.5358 23.5473 0 27.5 0C31.4527 0 35.0305 1.5358 37.6195 4.01702C38.2465 4.61579 38.8143 5.27336 39.3141 5.97298H49.3965C50.9377 5.97298 52.3386 6.57595 53.3558 7.54869C54.3708 8.52142 55 9.86392 55 11.343V38.4533C55 39.9303 54.3708 41.2728 53.3558 42.2476C52.3407 43.2204 50.9399 43.8233 49.3965 43.8233H37.2291V49.5293H48.5462ZM20.3514 49.5293H34.6537V43.8233H20.3514V49.5293ZM23.8854 9.2354C24.4137 8.7795 25.227 8.82152 25.7028 9.32785C26.1785 9.83418 26.1347 10.6136 25.6063 11.0695L22.5349 13.7146L25.6063 16.3597C26.1347 16.8156 26.1763 17.5951 25.7028 18.1014C25.2271 18.6077 24.4137 18.6476 23.8854 18.1939L19.7573 14.637C19.7222 14.6054 19.6893 14.5739 19.6542 14.5403C19.1785 14.034 19.2224 13.2546 19.7507 12.7986L23.8854 9.23754L23.8854 9.2354ZM29.399 11.0674C28.8706 10.6115 28.829 9.83203 29.3025 9.32571C29.7782 8.81938 30.5916 8.77948 31.1199 9.23326L35.2546 12.7944C35.7829 13.2503 35.8246 14.0297 35.351 14.536C35.3182 14.5697 35.2831 14.6012 35.248 14.6327L31.1199 18.1896C30.5916 18.6455 29.7782 18.6035 29.3025 18.0971C28.8268 17.5908 28.8706 16.8114 29.399 16.3554L32.4704 13.7104L29.399 11.0653L29.399 11.0674ZM14.2874 8.44123H5.6058C4.77491 8.44123 4.0186 8.76688 3.46832 9.29419C2.92025 9.81942 2.57827 10.5463 2.57827 11.3426V33.3499H52.4218V11.3426C52.4218 10.5463 52.082 9.82154 51.5318 9.29419C50.9837 8.76896 50.2274 8.44123 49.3943 8.44123H40.7127C41.4186 10.0652 41.8088 11.8447 41.8088 13.7104C41.8088 17.4984 40.2063 20.9271 37.6172 23.4082C35.0281 25.8894 31.4504 27.4252 27.4977 27.4252C23.545 27.4252 19.9672 25.8894 17.3782 23.4082C14.7891 20.927 13.1866 17.4984 13.1866 13.7104C13.1866 11.8426 13.5746 10.0632 14.2827 8.44123H14.2874ZM2.5808 35.8205V38.4529C2.5808 39.2492 2.9206 39.974 3.47084 40.5014C4.01891 41.0266 4.77524 41.3543 5.60833 41.3543H49.3991C50.23 41.3543 50.9863 41.0287 51.5366 40.5014C52.0846 39.9761 52.4266 39.2513 52.4266 38.4529V35.8205H2.5808Z" fill="#070707"/>
</svg>
