<svg width="28" height="22" viewBox="0 0 28 22" fill="none" xmlns="http://www.w3.org/2000/svg">
<path d="M22.9091 13.75V2.75C22.9091 1.2375 21.7636 0 20.3636 0H2.54545C1.14545 0 0 1.2375 0 2.75V13.75C0 15.2625 1.14545 16.5 2.54545 16.5H20.3636C21.7636 16.5 22.9091 15.2625 22.9091 13.75ZM20.3636 13.75H2.54545V2.75H20.3636V13.75ZM11.4545 4.125C9.34182 4.125 7.63636 5.9675 7.63636 8.25C7.63636 10.5325 9.34182 12.375 11.4545 12.375C13.5673 12.375 15.2727 10.5325 15.2727 8.25C15.2727 5.9675 13.5673 4.125 11.4545 4.125ZM28 4.125V19.25C28 20.7625 26.8545 22 25.4545 22H3.81818V19.25H25.4545V4.125H28Z" fill="black"/>
</svg>
