<svg width="52" height="52" viewBox="0 0 52 52" fill="none" xmlns="http://www.w3.org/2000/svg">
<path d="M51.6213 45.1436C51.0526 41.0311 49.9973 38.121 48.3732 36.4959C46.9661 34.9688 45.1022 33.9355 43.0624 33.5538C42.5233 33.4852 41.9774 33.4852 41.4384 33.5538C41.6873 32.0839 41.2488 30.5797 40.2529 29.4732L37.3611 26.4328L50.5339 13.2496C52.4024 11.3499 52.4024 8.3027 50.5339 6.40548L45.5794 1.41514C43.6813 -0.466222 40.6227 -0.466222 38.7243 1.41514L25.99 14.0957L15.855 2.95836C14.1624 1.1364 11.8097 0.0688436 9.32445 0.00025594C6.84379 -0.0180322 4.45452 0.944389 2.68218 2.68401C0.918785 4.44195 -0.0497495 6.84457 0.0028202 9.33385C0.0553899 11.8231 1.12211 14.1848 2.95632 15.8672L14.0848 26.0103L1.41431 38.675C0.493783 39.6031 -0.0155997 40.8604 0.000364227 42.168V50.6718C0.000364227 51.3988 0.589683 51.9886 1.31607 51.9886H9.82722C11.1132 51.9863 12.3444 51.4788 13.2558 50.5735L26.4287 37.3903L29.4164 40.1381C30.5129 41.1576 32.0227 41.6034 33.4938 41.3405C33.4321 41.88 33.4321 42.4264 33.4938 42.9659C33.889 45.0073 34.9237 46.8704 36.4518 48.2808C38.1741 50.0205 41.1139 51.1589 45.191 51.6778H45.1888C46.5319 51.8493 47.8819 51.9476 49.2341 51.9704C50.029 52.0687 50.8331 51.9202 51.5412 51.5498C52.2881 50.8983 51.9797 47.2567 51.6211 45.1446L51.6213 45.1436ZM40.6092 3.25015C41.4703 2.39058 42.866 2.39058 43.7271 3.25015L48.7318 8.27478C49.143 8.68627 49.3737 9.24402 49.3737 9.82696C49.3737 10.4099 49.143 10.9677 48.7318 11.3791L35.6385 24.4828L27.8905 16.0451L40.6092 3.25015ZM11.3713 48.7691C10.9396 49.1943 10.3548 49.4297 9.74723 49.4183H2.64768V42.1669C2.64083 41.5999 2.85783 41.0513 3.2484 40.6398L8.12061 35.7637L16.2435 43.893L11.3713 48.7691ZM18.1597 41.9753L10.0369 33.846L15.9985 27.8955L24.4453 35.6496L18.1597 41.9753ZM34.2406 38.2034V38.2011C33.384 39.0103 32.0455 39.0103 31.1888 38.2011L4.74433 13.9145C2.79136 12.0994 2.14491 9.27615 3.11338 6.79119C4.07958 4.30629 6.46434 2.66493 9.12996 2.64895H9.26016C11.0281 2.68553 12.707 3.4445 13.904 4.74749L38.2696 31.2128C39.0783 32.0701 39.0783 33.4097 38.2696 34.267L34.2406 38.2034ZM38.3339 46.5269V46.5246C37.2169 45.5073 36.4448 44.1678 36.1251 42.6887C35.9675 40.9467 36.687 39.2391 38.0415 38.1373C39.1448 36.7794 40.8511 36.0593 42.5916 36.2193C44.0649 36.5439 45.4035 37.3166 46.4245 38.4299C48.7316 40.6404 49.2341 46.6229 49.3324 49.3705C46.6027 49.3363 40.7393 48.8653 38.3524 46.4604L38.3339 46.5269Z" fill="#070707"/>
</svg>
