<svg width="22" height="24" viewBox="0 0 22 24" fill="none" xmlns="http://www.w3.org/2000/svg">
<path d="M17.1111 0V2.4H20.7863C21.4561 2.4 22 2.934 22 3.5916V22.8084C21.9997 23.1243 21.8717 23.4272 21.6442 23.6506C21.4166 23.874 21.1081 23.9997 20.7863 24H1.21367C0.891782 24 0.583081 23.8745 0.355475 23.651C0.127868 23.4275 0 23.1244 0 22.8084V3.5916C0 2.934 0.543889 2.4 1.21367 2.4H4.88889V0H17.1111ZM4.88889 4.8H2.44444V21.6H19.5556V4.8H17.1111V7.2H4.88889V4.8ZM7.33333 16.8V19.2H4.88889V16.8H7.33333ZM7.33333 13.2V15.6H4.88889V13.2H7.33333ZM7.33333 9.6V12H4.88889V9.6H7.33333ZM14.6667 2.4H7.33333V4.8H14.6667V2.4Z" fill="black"/>
</svg>
