<svg width="26" height="18" viewBox="0 0 26 18" fill="none" xmlns="http://www.w3.org/2000/svg">
<path d="M11.2373 17.4883C11.5432 17.8124 11.9542 17.9959 12.3836 18C12.8137 17.9996 13.226 17.8155 13.5299 17.4883L21.262 9.17344C21.2873 9.1453 21.3175 9.12292 21.3509 9.10763C21.3844 9.09235 21.4204 9.08447 21.4567 9.08447C21.493 9.08447 21.529 9.09235 21.5625 9.10763C21.5959 9.12292 21.6261 9.1453 21.6514 9.17344L22.603 10.2084C22.7386 10.3548 22.9081 10.4596 23.0939 10.5121C23.2797 10.5647 23.4752 10.563 23.6603 10.5074C23.8453 10.4517 24.0132 10.344 24.1467 10.1954C24.2802 10.0468 24.3744 9.86265 24.4198 9.66187L25.977 3.09137C26.0148 2.8973 26.0059 2.69606 25.951 2.50677C25.8961 2.31748 25.7971 2.14642 25.6634 2.00985C25.5321 1.86636 25.3684 1.762 25.1883 1.70696C25.0082 1.65192 24.8179 1.6481 24.6361 1.69587L18.5152 3.32395C18.3302 3.37376 18.1608 3.47529 18.024 3.61825C17.8873 3.76122 17.7881 3.94053 17.7366 4.138C17.6806 4.341 17.6772 4.55659 17.7267 4.76153C17.7763 4.96647 17.8769 5.15297 18.0178 5.30092L18.9694 6.33592C18.9946 6.36105 19.0143 6.39173 19.0274 6.42585C19.0405 6.45998 19.0465 6.49674 19.0451 6.53361C19.0467 6.57224 19.0408 6.61079 19.0277 6.64682C19.0147 6.68286 18.9948 6.71559 18.9694 6.74294L11.2373 15.0578C10.9458 15.3847 10.7831 15.8201 10.7831 16.2731C10.7831 16.726 10.9458 17.1614 11.2373 17.4883ZM12.5025 0.451541L4.51086 8.59198C4.46032 8.64525 4.39238 8.67509 4.32161 8.67509C4.25084 8.67509 4.1829 8.64525 4.13236 8.59198L3.397 7.82445C3.26135 7.67812 3.0919 7.57329 2.90608 7.52075C2.72026 7.46821 2.52477 7.46986 2.33974 7.52552C2.15471 7.58119 1.98681 7.68886 1.85331 7.83747C1.71982 7.98607 1.62555 8.17024 1.58021 8.37103L0.0229696 14.8834C-0.0148312 15.0774 -0.00586063 15.2787 0.049029 15.468C0.103919 15.6573 0.202904 15.8283 0.336581 15.9649C0.473001 16.1184 0.645905 16.2288 0.836541 16.2842C1.02718 16.3395 1.22827 16.3377 1.418 16.2789L7.48476 14.6508C7.67061 14.6005 7.84069 14.498 7.97761 14.3538C8.11452 14.2096 8.21334 14.0289 8.26394 13.8301C8.31455 13.6314 8.31514 13.4217 8.26563 13.2226C8.21613 13.0235 8.11832 12.8422 7.98222 12.6971L6.80347 11.4295C6.7551 11.3722 6.72814 11.2976 6.72777 11.2202C6.72844 11.1825 6.73649 11.1455 6.7514 11.1114C6.76631 11.0773 6.78773 11.047 6.81428 11.0225L14.7303 2.98671C15.0324 2.66641 15.2059 2.23154 15.2134 1.77535C15.221 1.31915 15.062 0.877937 14.7706 0.546308C14.4791 0.214678 14.0785 0.0190319 13.6545 0.00131663C13.2306 -0.0163986 12.817 0.145227 12.5025 0.451541Z" fill="black"/>
</svg>
