<svg  viewBox="0 0 560 603" fill="none" xmlns="http://www.w3.org/2000/svg">
<path d="M326.974 418.228C287.204 405.035 252.202 380.431 226.329 347.481C185.593 296.517 171.204 238.295 183.161 172.814C192.074 123.958 214.054 80.2317 249.1 41.6355L215.821 -0.000564332C154.771 49.325 119.904 110.599 111.22 183.821C102.508 257.594 122.496 324.938 171.183 385.851C203.384 426.137 242.198 455.333 287.623 473.439C332.047 491.457 380.562 496.977 427.912 489.399C475.7 481.958 519.65 462.288 559.764 430.392L531.544 395.085C507.039 408.803 480.602 418.74 453.131 424.559C409.189 433.788 367.137 431.677 326.974 418.228Z" fill="#FFE600"/>
<path d="M377.946 353.043C340.522 347.474 309.114 328.815 283.721 297.065C258.329 265.316 247.128 230.922 250.117 193.881C253.055 157.153 269.149 126.964 298.399 103.312L248.949 41.4454C213.962 79.9892 192.03 123.7 183.155 172.578C171.226 238.026 185.667 296.27 226.478 347.309C252.374 380.288 287.39 404.929 327.161 418.162C367.332 431.661 409.382 433.804 453.313 424.592C480.77 418.799 507.189 408.886 531.673 395.189L477.16 326.988C448.153 349.886 415.082 358.571 377.946 353.043Z" fill="#ED910C"/>
</svg>
