<svg width="500" height="323" viewBox="0 0 500 323" fill="none" xmlns="http://www.w3.org/2000/svg">
<path d="M497.362 276.879C482.896 264.109 448.942 233.595 401.638 211.987C376.843 200.661 352.059 196.481 332.448 198.971C332.124 199.012 331.801 199.056 331.479 199.101C315.941 185.067 296.714 169.735 273.099 153.034C215.565 112.345 163.036 91.7695 121.606 84.0315C117.661 76.7763 111.964 69.3666 104.405 61.9643C58.44 16.9563 23.0334 6.04146 10.6858 1.06347L10.1154 0.830825L9.95392 0.766279C6.55453 -0.537849 2.71234 1.10461 1.30952 4.49427C-0.115552 7.93776 1.5165 11.8804 4.95485 13.3007C16.7834 18.1865 50.3336 27.9062 94.97 71.6136C98.3943 74.9667 101.305 78.2341 103.756 81.3941C94.9225 80.4507 86.7397 80.1424 79.2837 80.379C68.1845 80.7313 58.5262 82.2953 50.657 84.8786C42.8836 87.4305 36.3417 91.1491 32.1199 96.1851C27.6641 101.5 26.0072 108.105 28.1467 114.953C30.1511 121.367 35.2094 127.123 42.212 132.143C69.5417 151.734 100.209 151.073 117.019 135.274C125.525 127.28 129.844 115.819 128.033 102.73C127.861 101.49 127.636 100.239 127.355 98.9802C165.278 107.404 212.879 126.976 265.308 164.055C285.373 178.245 302.025 191.296 315.794 203.244C304.269 208.027 295.651 216.41 293.564 228.881C292.139 237.4 294.226 247.569 297.932 257.433C301.706 267.475 307.461 277.999 314.284 287.545C321.097 297.075 329.147 305.87 337.638 312.291C346 318.614 355.547 323.2 365.176 322.898C378.596 322.478 396.064 306.024 388.863 277.228C384.615 260.242 371.895 238.629 344.877 211.773C359.779 211.949 377.647 215.865 396.024 224.26C441.35 244.965 474.01 274.268 488.436 287.002C491.224 289.464 495.484 289.193 497.948 286.398C500.413 283.603 500.15 279.341 497.362 276.879ZM112.408 96.1413C113.583 99.1419 114.318 101.972 114.682 104.603C115.905 113.442 113.051 120.515 107.801 125.449C97.1021 135.504 73.9284 138.273 50.0731 121.172C44.2795 117.019 41.7952 113.414 41.0115 110.906C40.3631 108.831 40.6728 106.952 42.4394 104.844C44.44 102.458 48.3764 99.816 54.838 97.6948C61.2036 95.6051 69.5371 94.1835 79.6874 93.8614C89.2121 93.5591 100.187 94.2301 112.408 96.1413ZM327.311 213.598C358.949 243.131 371.958 265.212 375.787 280.524C381.305 302.589 368.002 309.315 364.777 309.416C359.579 309.579 353.048 307.023 345.776 301.524C338.633 296.122 331.491 288.414 325.251 279.684C319.021 270.968 313.859 261.474 310.549 252.666C307.172 243.678 306.008 236.162 306.858 231.087C308.177 223.204 314.82 216.666 327.311 213.598Z" fill="url(#paint0_linear_277_2)"/>
<defs>
<linearGradient id="paint0_linear_277_2" x1="493.188" y1="281.494" x2="-9.41064" y2="293.062" gradientUnits="userSpaceOnUse">
<stop stop-color="#FFCC40"/>
<stop offset="0.466346" stop-color="#EC9122"/>
<stop offset="1" stop-color="#FF2CAE"/>
</linearGradient>
</defs>
</svg>
