<svg width="113" height="178" viewBox="0 0 113 178" fill="none" xmlns="http://www.w3.org/2000/svg">
<path d="M74.3391 24.0386C82.2557 29.6103 88.4613 37.4506 92.1916 46.5692C98.1361 60.722 97.911 74.7875 91.5399 88.7709C86.7796 99.2015 79.4623 107.625 69.5957 114.028L74.4453 125.585C90.6081 118.458 101.733 106.937 107.848 91.0036C113.993 74.9341 113.513 58.4466 106.401 41.5086C101.707 30.3275 94.9351 21.2003 86.0762 14.1405C77.431 7.17432 67.1711 2.75262 56.415 1.3647C45.5765 -0.082367 34.8533 1.46813 24.2617 6.03505L28.3784 15.8507C34.5129 14.3578 40.8567 13.8531 47.175 14.3299C57.3108 15.1415 66.3655 18.3777 74.3391 24.0386Z" fill="#EC3593"/>
<path d="M59.4981 35.3949C67.3455 39.0938 73.1144 45.3455 76.8077 54.1606C80.4981 62.965 80.953 71.4527 78.1693 79.6131C75.3993 87.7002 70.1316 93.463 62.3735 96.8877L69.575 114.034C79.4387 107.62 86.7485 99.2098 91.5192 88.7765C97.9035 74.8011 98.1154 60.7276 92.1812 46.5719C88.4377 37.4453 82.235 29.6159 74.3288 24.0413C66.3418 18.3724 57.2901 15.147 47.1808 14.3516C40.8596 13.8639 34.5187 14.3794 28.3842 15.8723L36.3301 34.8032C43.9855 31.5336 51.717 31.7362 59.4981 35.3949Z" fill="#B11F80"/>
<path d="M24.6606 6.04566L0.616557 16.4924L68.3821 177.973L92.4261 167.526L24.6606 6.04566Z" fill="#EC3593"/>
</svg>
