<svg width="173" height="66" viewBox="0 0 173 66" fill="none" xmlns="http://www.w3.org/2000/svg">
<g clip-path="url(#clip0_175_11)">
<path d="M79.1323 28.4542C77.7426 28.4542 76.4903 28.154 75.3753 27.5537C74.2765 26.9362 73.412 26.0872 72.7818 25.0066C72.1678 23.926 71.8608 22.6996 71.8608 21.3274C71.8608 19.9552 72.1678 18.7288 72.7818 17.6482C73.412 16.5676 74.2765 15.7271 75.3753 15.1268C76.4903 14.5093 77.7426 14.2006 79.1323 14.2006C80.5058 14.2006 81.7015 14.5093 82.7195 15.1268C83.7537 15.7271 84.5051 16.5933 84.9737 17.7254L82.0408 19.3977C81.3622 18.1285 80.3846 17.4938 79.108 17.4938C78.1223 17.4938 77.3063 17.8369 76.66 18.523C76.0136 19.2091 75.6904 20.1439 75.6904 21.3274C75.6904 22.5109 76.0136 23.4457 76.66 24.1318C77.3063 24.8179 78.1223 25.1609 79.108 25.1609C80.4007 25.1609 81.3783 24.5263 82.0408 23.257L84.9737 24.9551C84.5051 26.0529 83.7537 26.9105 82.7195 27.528C81.7015 28.1455 80.5058 28.4542 79.1323 28.4542Z" fill="white"/>
<path d="M90.7623 16.2331C91.2147 15.5642 91.8207 15.0582 92.5801 14.7152C93.3558 14.3721 94.2445 14.2006 95.2463 14.2006V17.9055C94.8262 17.8712 94.5434 17.854 94.398 17.854C93.3154 17.854 92.467 18.1799 91.853 18.8317C91.2389 19.4664 90.9319 20.4269 90.9319 21.7133V28.2484H87.1508V14.4064H90.7623V16.2331Z" fill="white"/>
<path d="M110.15 21.3788C110.15 21.4303 110.126 21.7905 110.077 22.4594H100.212C100.39 23.3171 100.81 23.9946 101.473 24.492C102.135 24.9894 102.959 25.2381 103.945 25.2381C104.624 25.2381 105.221 25.1352 105.738 24.9294C106.272 24.7064 106.765 24.3634 107.217 23.9002L109.229 26.2158C108.001 27.7081 106.207 28.4542 103.848 28.4542C102.377 28.4542 101.077 28.154 99.9455 27.5537C98.8144 26.9362 97.9418 26.0872 97.3278 25.0066C96.7138 23.926 96.4067 22.6996 96.4067 21.3274C96.4067 19.9724 96.7057 18.7545 97.3036 17.6739C97.9176 16.5762 98.7498 15.7271 99.8001 15.1268C100.867 14.5093 102.054 14.2006 103.363 14.2006C104.64 14.2006 105.795 14.4922 106.829 15.0754C107.863 15.6585 108.671 16.499 109.253 17.5968C109.851 18.6773 110.15 19.938 110.15 21.3788ZM103.387 17.2366C102.531 17.2366 101.812 17.4938 101.23 18.0084C100.648 18.523 100.293 19.2262 100.164 20.1181H106.587C106.458 19.2434 106.102 18.5487 105.52 18.0341C104.939 17.5024 104.228 17.2366 103.387 17.2366Z" fill="white"/>
<path d="M117.572 14.2006C119.592 14.2006 121.143 14.7152 122.226 15.7443C123.308 16.7563 123.85 18.2914 123.85 20.3497V28.2484H120.311V26.5246C119.6 27.811 118.275 28.4542 116.336 28.4542C115.334 28.4542 114.461 28.2741 113.718 27.9139C112.991 27.5537 112.433 27.0563 112.046 26.4216C111.658 25.787 111.464 25.0666 111.464 24.2604C111.464 22.974 111.916 21.962 112.821 21.2245C113.742 20.4869 115.156 20.1181 117.063 20.1181H120.068C120.068 19.2434 119.818 18.5744 119.317 18.1113C118.816 17.6311 118.065 17.3909 117.063 17.3909C116.368 17.3909 115.681 17.511 115.003 17.7511C114.34 17.9741 113.775 18.2828 113.306 18.6774L111.949 15.8729C112.66 15.3412 113.508 14.9296 114.494 14.638C115.495 14.3464 116.522 14.2006 117.572 14.2006ZM117.281 25.7527C117.927 25.7527 118.501 25.5983 119.002 25.2896C119.503 24.9637 119.858 24.492 120.068 23.8745V22.4594H117.475C115.924 22.4594 115.148 22.9997 115.148 24.0803C115.148 24.5949 115.334 25.0066 115.706 25.3153C116.093 25.6069 116.618 25.7527 117.281 25.7527Z" fill="white"/>
<path d="M135.682 27.5794C135.311 27.871 134.85 28.094 134.301 28.2484C133.768 28.3856 133.202 28.4542 132.604 28.4542C131.053 28.4542 129.849 28.034 128.993 27.1935C128.152 26.353 127.732 25.1181 127.732 23.4886V17.8026H125.72V14.7152H127.732V11.3447H131.513V14.7152H134.761V17.8026H131.513V23.4371C131.513 24.0203 131.651 24.4749 131.925 24.8007C132.216 25.1095 132.62 25.2639 133.137 25.2639C133.735 25.2639 134.244 25.0923 134.664 24.7493L135.682 27.5794Z" fill="white"/>
<path d="M137.805 14.4064H141.586V28.2484H137.805V14.4064ZM139.696 12.4768C139.001 12.4768 138.435 12.2624 137.999 11.8336C137.563 11.4047 137.344 10.873 137.344 10.2384C137.344 9.60375 137.563 9.07202 137.999 8.64321C138.435 8.2144 139.001 8 139.696 8C140.39 8 140.956 8.20583 141.392 8.61749C141.828 9.02914 142.047 9.54371 142.047 10.1612C142.047 10.8301 141.828 11.3876 141.392 11.8336C140.956 12.2624 140.39 12.4768 139.696 12.4768Z" fill="white"/>
<path d="M158.039 14.4064L152.536 28.2484H148.634L143.156 14.4064H147.059L150.67 23.8231L154.403 14.4064H158.039Z" fill="white"/>
<path d="M172 21.3788C172 21.4303 171.976 21.7905 171.927 22.4594H162.062C162.24 23.3171 162.66 23.9946 163.323 24.492C163.985 24.9894 164.809 25.2381 165.795 25.2381C166.474 25.2381 167.072 25.1352 167.589 24.9294C168.122 24.7064 168.615 24.3634 169.067 23.9002L171.079 26.2158C169.851 27.7081 168.057 28.4542 165.698 28.4542C164.228 28.4542 162.927 28.154 161.796 27.5537C160.665 26.9362 159.792 26.0872 159.178 25.0066C158.564 23.926 158.257 22.6996 158.257 21.3274C158.257 19.9724 158.556 18.7545 159.154 17.6739C159.768 16.5762 160.6 15.7271 161.65 15.1268C162.717 14.5093 163.904 14.2006 165.213 14.2006C166.49 14.2006 167.645 14.4922 168.679 15.0754C169.714 15.6585 170.521 16.499 171.103 17.5968C171.701 18.6773 172 19.938 172 21.3788ZM165.238 17.2366C164.381 17.2366 163.662 17.4938 163.08 18.0084C162.499 18.523 162.143 19.2262 162.014 20.1181H168.437C168.308 19.2434 167.952 18.5487 167.37 18.0341C166.789 17.5024 166.078 17.2366 165.238 17.2366Z" fill="white"/>
<path d="M80.5381 37.3805C81.75 37.3805 82.8488 37.6807 83.8345 38.281C84.8363 38.8642 85.62 39.6961 86.1856 40.7767C86.7512 41.8401 87.0339 43.0837 87.0339 44.5073C87.0339 45.931 86.7512 47.1831 86.1856 48.2637C85.62 49.3272 84.8363 50.1591 83.8345 50.7594C82.8488 51.3426 81.75 51.6342 80.5381 51.6342C78.8737 51.6342 77.5649 51.0767 76.6115 49.9618V56.4197H72.8303V37.5864H76.4418V39.1815C77.379 37.9809 78.7444 37.3805 80.5381 37.3805ZM79.8836 48.3409C80.8532 48.3409 81.645 47.9979 82.259 47.3118C82.8892 46.6085 83.2043 45.6737 83.2043 44.5073C83.2043 43.341 82.8892 42.4148 82.259 41.7287C81.645 41.0254 80.8532 40.6738 79.8836 40.6738C78.9141 40.6738 78.1142 41.0254 77.4841 41.7287C76.87 42.4148 76.563 43.341 76.563 44.5073C76.563 45.6737 76.87 46.6085 77.4841 47.3118C78.1142 47.9979 78.9141 48.3409 79.8836 48.3409Z" fill="white"/>
<path d="M89.5651 37.5864H93.3463V51.4283H89.5651V37.5864ZM91.4557 35.6567C90.7609 35.6567 90.1953 35.4423 89.759 35.0135C89.3227 34.5847 89.1046 34.053 89.1046 33.4183C89.1046 32.7837 89.3227 32.252 89.759 31.8232C90.1953 31.3944 90.7609 31.18 91.4557 31.18C92.1505 31.18 92.7161 31.3858 93.1524 31.7974C93.5887 32.2091 93.8068 32.7237 93.8068 33.3412C93.8068 34.0101 93.5887 34.5675 93.1524 35.0135C92.7161 35.4423 92.1505 35.6567 91.4557 35.6567Z" fill="white"/>
<path d="M105.145 51.4283L102.285 47.1831L99.3278 51.4283H95.2073L100.225 44.4559L95.377 37.5864H99.6187L102.382 41.6258L105.218 37.5864H109.241L104.394 44.353L109.435 51.4283H105.145Z" fill="white"/>
<path d="M123.642 44.5588C123.642 44.6103 123.618 44.9705 123.569 45.6394H113.704C113.882 46.497 114.302 47.1745 114.965 47.672C115.627 48.1694 116.451 48.4181 117.437 48.4181C118.116 48.4181 118.713 48.3152 119.23 48.1093C119.764 47.8864 120.257 47.5433 120.709 47.0802L122.721 49.3958C121.493 50.888 119.699 51.6342 117.34 51.6342C115.869 51.6342 114.569 51.334 113.438 50.7337C112.306 50.1162 111.434 49.2671 110.82 48.1865C110.206 47.1059 109.899 45.8795 109.899 44.5073C109.899 43.1523 110.198 41.9345 110.796 40.8539C111.41 39.7561 112.242 38.9071 113.292 38.3068C114.359 37.6893 115.546 37.3805 116.855 37.3805C118.132 37.3805 119.287 37.6721 120.321 38.2553C121.355 38.8385 122.163 39.679 122.745 40.7767C123.343 41.8573 123.642 43.118 123.642 44.5588ZM116.879 40.4165C116.023 40.4165 115.304 40.6738 114.722 41.1884C114.14 41.7029 113.785 42.4062 113.656 43.2981H120.079C119.95 42.4233 119.594 41.7287 119.012 41.2141C118.431 40.6824 117.72 40.4165 116.879 40.4165Z" fill="white"/>
<path d="M126.159 32.3377H129.94V51.4283H126.159V32.3377Z" fill="white"/>
<path d="M137.837 51.6342C136.754 51.6342 135.696 51.4969 134.662 51.2225C133.627 50.9309 132.803 50.5707 132.189 50.1419L133.45 47.2603C134.031 47.6548 134.734 47.9807 135.558 48.238C136.382 48.4781 137.19 48.5982 137.982 48.5982C139.582 48.5982 140.382 48.178 140.382 47.3375C140.382 46.943 140.164 46.66 139.727 46.4884C139.291 46.3169 138.62 46.1711 137.716 46.0511C136.649 45.8795 135.768 45.6823 135.074 45.4593C134.379 45.2363 133.773 44.8418 133.256 44.2758C132.755 43.7098 132.504 42.9036 132.504 41.8573C132.504 40.9825 132.739 40.2107 133.207 39.5417C133.692 38.8556 134.387 38.3239 135.292 37.9466C136.213 37.5692 137.295 37.3805 138.54 37.3805C139.461 37.3805 140.374 37.492 141.279 37.715C142.2 37.9208 142.959 38.2124 143.557 38.5898L142.297 41.4456C141.149 40.7596 139.897 40.4165 138.54 40.4165C137.732 40.4165 137.126 40.5366 136.722 40.7767C136.318 41.0168 136.116 41.3256 136.116 41.7029C136.116 42.1317 136.334 42.4319 136.77 42.6034C137.207 42.775 137.901 42.9379 138.855 43.0923C139.921 43.281 140.794 43.4868 141.472 43.7098C142.151 43.9156 142.741 44.3015 143.242 44.8675C143.743 45.4336 143.993 46.2226 143.993 47.2346C143.993 48.0922 143.751 48.8555 143.266 49.5244C142.781 50.1934 142.07 50.7165 141.133 51.0939C140.212 51.4541 139.113 51.6342 137.837 51.6342Z" fill="white"/>
<path d="M10.7833 45.5552C8.80853 42.3174 7.76754 38.5352 7.80199 34.6758C7.80199 28.6674 9.97582 23.6503 14.3273 19.6284C17.5727 16.6262 21.4229 14.7412 25.8815 13.9815V9.07407C19.0883 9.11063 13.4164 11.5156 8.87359 16.285C4.29247 21.0909 2 27.0871 2 34.2696C2 39.0146 3.04864 43.3492 5.13828 47.2655C7.1705 51.1167 10.1557 54.3017 13.7685 56.4792C17.4043 58.6973 21.4382 59.8063 25.8739 59.8185V55.6586C23.4742 55.2361 21.1511 54.4317 18.9773 53.2698C15.5061 51.4051 12.7735 48.8336 10.7833 45.5552Z" fill="#FFE400"/>
<path d="M17.7565 43.792C15.5214 41.2449 14.4039 38.0964 14.4039 34.3549C14.4039 30.6133 15.5061 27.4974 17.7105 25.0071C19.8997 22.5331 22.6208 21.2859 25.8854 21.2696V13.9815C21.4305 14.7453 17.5766 16.6262 14.3311 19.6284C9.98347 23.6503 7.80581 28.6674 7.80581 34.6758C7.7752 38.5352 8.81236 42.3174 10.791 45.5552C12.7773 48.8336 15.5099 51.4051 18.985 53.2657C21.155 54.4276 23.4781 55.232 25.8777 55.6545V47.6108C22.6744 47.5945 19.9686 46.323 17.7565 43.792Z" fill="#EC9122"/>
<path d="M54.1987 20.6643C56.4147 23.3578 57.8307 26.6849 58.2747 30.2274C59.0171 35.7402 57.6394 40.6436 54.149 44.9417C51.5427 48.147 48.2398 50.4098 44.2443 51.7261L44.849 56.2273C51.0834 55.2482 55.986 52.2583 59.5683 47.2533C63.1735 42.2036 64.5321 36.3861 63.6442 29.7887C63.0586 25.4337 61.566 21.6028 59.1626 18.3C56.8242 15.05 53.6936 12.5394 50.1113 11.0444C46.5061 9.52094 42.6637 9.05782 38.5877 9.66313L39.1006 13.4859C41.3548 13.5387 43.5898 13.9572 45.7254 14.7169C49.1469 15.9518 51.9713 17.9343 54.1987 20.6643Z" fill="#EC3593"/>
<path d="M48.0293 23.2481C50.3945 25.2793 51.8068 28.0093 52.266 31.4421C52.7253 34.8708 52.0976 37.8852 50.3831 40.4811C48.68 43.0527 46.3301 44.5761 43.3372 45.0473L44.2366 51.7261C48.2322 50.4058 51.5312 48.147 54.1413 44.9417C57.6355 40.6477 59.0095 35.7402 58.2708 30.2274C57.8231 26.6809 56.407 23.3578 54.1949 20.6643C51.9637 17.9303 49.1392 15.9518 45.7254 14.725C43.5898 13.9612 41.3548 13.5469 39.1006 13.494L40.0918 20.8675C43.0349 20.4409 45.6833 21.2371 48.0293 23.2481Z" fill="#B11F80"/>
<path d="M38.7244 9.70426L29.4643 11.1062L37.915 74L47.1751 72.5981L38.7244 9.70426Z" fill="#EC3593"/>
</g>
<g clip-path="url(#clip1_175_11)">
<path d="M79.1323 20.4542C77.7426 20.4542 76.4903 20.154 75.3753 19.5537C74.2765 18.9362 73.412 18.0872 72.7818 17.0066C72.1678 15.926 71.8608 14.6996 71.8608 13.3274C71.8608 11.9552 72.1678 10.7288 72.7818 9.64821C73.412 8.56761 74.2765 7.72714 75.3753 7.12681C76.4903 6.50932 77.7426 6.20058 79.1323 6.20058C80.5058 6.20058 81.7015 6.50932 82.7195 7.12681C83.7537 7.72714 84.5051 8.59334 84.9737 9.72539L82.0408 11.3977C81.3622 10.1285 80.3846 9.49384 79.108 9.49384C78.1223 9.49384 77.3063 9.83688 76.66 10.523C76.0136 11.2091 75.6904 12.1439 75.6904 13.3274C75.6904 14.5109 76.0136 15.4457 76.66 16.1318C77.3063 16.8179 78.1223 17.1609 79.108 17.1609C80.4007 17.1609 81.3783 16.5263 82.0408 15.257L84.9737 16.9551C84.5051 18.0529 83.7537 18.9105 82.7195 19.528C81.7015 20.1455 80.5058 20.4542 79.1323 20.4542Z" fill="white"/>
<path d="M90.7623 8.23314C91.2147 7.5642 91.8207 7.0582 92.5801 6.71515C93.3558 6.37211 94.2445 6.20058 95.2463 6.20058V9.90549C94.8262 9.87119 94.5434 9.85404 94.398 9.85404C93.3154 9.85404 92.467 10.1799 91.853 10.8317C91.2389 11.4664 90.9319 12.4269 90.9319 13.7133V20.2484H87.1508V6.40641H90.7623V8.23314Z" fill="white"/>
<path d="M110.15 13.3788C110.15 13.4303 110.126 13.7905 110.077 14.4594H100.212C100.39 15.3171 100.81 15.9946 101.473 16.492C102.135 16.9894 102.959 17.2381 103.945 17.2381C104.624 17.2381 105.221 17.1352 105.738 16.9294C106.272 16.7064 106.765 16.3634 107.217 15.9002L109.229 18.2158C108.001 19.7081 106.207 20.4542 103.848 20.4542C102.377 20.4542 101.077 20.154 99.9455 19.5537C98.8144 18.9362 97.9418 18.0872 97.3278 17.0066C96.7138 15.926 96.4067 14.6996 96.4067 13.3274C96.4067 11.9724 96.7057 10.7545 97.3036 9.67394C97.9176 8.57618 98.7498 7.72714 99.8001 7.12681C100.867 6.50932 102.054 6.20058 103.363 6.20058C104.64 6.20058 105.795 6.49217 106.829 7.07535C107.863 7.65853 108.671 8.499 109.253 9.59675C109.851 10.6773 110.15 11.938 110.15 13.3788ZM103.387 9.23655C102.531 9.23655 101.812 9.49384 101.23 10.0084C100.648 10.523 100.293 11.2262 100.164 12.1181H106.587C106.458 11.2434 106.102 10.5487 105.52 10.0341C104.939 9.50241 104.228 9.23655 103.387 9.23655Z" fill="white"/>
<path d="M117.572 6.20058C119.592 6.20058 121.143 6.71515 122.226 7.74429C123.308 8.75628 123.85 10.2914 123.85 12.3497V20.2484H120.311V18.5246C119.6 19.811 118.275 20.4542 116.336 20.4542C115.334 20.4542 114.461 20.2741 113.718 19.9139C112.991 19.5537 112.433 19.0563 112.046 18.4216C111.658 17.787 111.464 17.0666 111.464 16.2604C111.464 14.974 111.916 13.962 112.821 13.2245C113.742 12.4869 115.156 12.1181 117.063 12.1181H120.068C120.068 11.2434 119.818 10.5744 119.317 10.1113C118.816 9.63106 118.065 9.39092 117.063 9.39092C116.368 9.39092 115.681 9.51099 115.003 9.75112C114.34 9.9741 113.775 10.2828 113.306 10.6774L111.949 7.87294C112.66 7.34121 113.508 6.92956 114.494 6.63797C115.495 6.34638 116.522 6.20058 117.572 6.20058ZM117.281 17.7527C117.927 17.7527 118.501 17.5983 119.002 17.2896C119.503 16.9637 119.858 16.492 120.068 15.8745V14.4594H117.475C115.924 14.4594 115.148 14.9997 115.148 16.0803C115.148 16.5949 115.334 17.0066 115.706 17.3153C116.093 17.6069 116.618 17.7527 117.281 17.7527Z" fill="white"/>
<path d="M135.682 19.5794C135.311 19.871 134.85 20.094 134.301 20.2484C133.768 20.3856 133.202 20.4542 132.604 20.4542C131.053 20.4542 129.849 20.034 128.993 19.1935C128.152 18.353 127.732 17.1181 127.732 15.4886V9.80258H125.72V6.71515H127.732V3.34471H131.513V6.71515H134.761V9.80258H131.513V15.4371C131.513 16.0203 131.651 16.4749 131.925 16.8007C132.216 17.1095 132.62 17.2639 133.137 17.2639C133.735 17.2639 134.244 17.0923 134.664 16.7493L135.682 19.5794Z" fill="white"/>
<path d="M137.805 6.40641H141.586V20.2484H137.805V6.40641ZM139.696 4.47677C139.001 4.47677 138.435 4.26236 137.999 3.83356C137.563 3.40475 137.344 2.87302 137.344 2.23838C137.344 1.60375 137.563 1.07202 137.999 0.643215C138.435 0.214405 139.001 0 139.696 0C140.39 0 140.956 0.205829 141.392 0.617487C141.828 1.02914 142.047 1.54371 142.047 2.1612C142.047 2.83014 141.828 3.38759 141.392 3.83356C140.956 4.26236 140.39 4.47677 139.696 4.47677Z" fill="white"/>
<path d="M158.039 6.40641L152.536 20.2484H148.634L143.156 6.40641H147.059L150.67 15.8231L154.403 6.40641H158.039Z" fill="white"/>
<path d="M172 13.3788C172 13.4303 171.976 13.7905 171.927 14.4594H162.062C162.24 15.3171 162.66 15.9946 163.323 16.492C163.985 16.9894 164.809 17.2381 165.795 17.2381C166.474 17.2381 167.072 17.1352 167.589 16.9294C168.122 16.7064 168.615 16.3634 169.067 15.9002L171.079 18.2158C169.851 19.7081 168.057 20.4542 165.698 20.4542C164.228 20.4542 162.927 20.154 161.796 19.5537C160.665 18.9362 159.792 18.0872 159.178 17.0066C158.564 15.926 158.257 14.6996 158.257 13.3274C158.257 11.9724 158.556 10.7545 159.154 9.67394C159.768 8.57618 160.6 7.72714 161.65 7.12681C162.717 6.50932 163.904 6.20058 165.213 6.20058C166.49 6.20058 167.645 6.49217 168.679 7.07535C169.714 7.65853 170.521 8.499 171.103 9.59675C171.701 10.6773 172 11.938 172 13.3788ZM165.238 9.23655C164.381 9.23655 163.662 9.49384 163.08 10.0084C162.499 10.523 162.143 11.2262 162.014 12.1181H168.437C168.308 11.2434 167.952 10.5487 167.37 10.0341C166.789 9.50241 166.078 9.23655 165.238 9.23655Z" fill="white"/>
<path d="M80.5381 29.3805C81.75 29.3805 82.8488 29.6807 83.8345 30.281C84.8363 30.8642 85.62 31.6961 86.1856 32.7767C86.7512 33.8401 87.0339 35.0837 87.0339 36.5073C87.0339 37.931 86.7512 39.1831 86.1856 40.2637C85.62 41.3272 84.8363 42.1591 83.8345 42.7594C82.8488 43.3426 81.75 43.6342 80.5381 43.6342C78.8737 43.6342 77.5649 43.0767 76.6115 41.9618V48.4197H72.8303V29.5864H76.4418V31.1815C77.379 29.9809 78.7444 29.3805 80.5381 29.3805ZM79.8836 40.3409C80.8532 40.3409 81.645 39.9979 82.259 39.3118C82.8892 38.6085 83.2043 37.6737 83.2043 36.5073C83.2043 35.341 82.8892 34.4148 82.259 33.7287C81.645 33.0254 80.8532 32.6738 79.8836 32.6738C78.9141 32.6738 78.1142 33.0254 77.4841 33.7287C76.87 34.4148 76.563 35.341 76.563 36.5073C76.563 37.6737 76.87 38.6085 77.4841 39.3118C78.1142 39.9979 78.9141 40.3409 79.8836 40.3409Z" fill="white"/>
<path d="M89.5651 29.5864H93.3463V43.4283H89.5651V29.5864ZM91.4557 27.6567C90.7609 27.6567 90.1953 27.4423 89.759 27.0135C89.3227 26.5847 89.1046 26.053 89.1046 25.4183C89.1046 24.7837 89.3227 24.252 89.759 23.8232C90.1953 23.3944 90.7609 23.18 91.4557 23.18C92.1505 23.18 92.7161 23.3858 93.1524 23.7974C93.5887 24.2091 93.8068 24.7237 93.8068 25.3412C93.8068 26.0101 93.5887 26.5675 93.1524 27.0135C92.7161 27.4423 92.1505 27.6567 91.4557 27.6567Z" fill="white"/>
<path d="M105.145 43.4283L102.285 39.1831L99.3278 43.4283H95.2073L100.225 36.4559L95.377 29.5864H99.6187L102.382 33.6258L105.218 29.5864H109.241L104.394 36.353L109.435 43.4283H105.145Z" fill="white"/>
<path d="M123.642 36.5588C123.642 36.6103 123.618 36.9705 123.569 37.6394H113.704C113.882 38.497 114.302 39.1745 114.965 39.672C115.627 40.1694 116.451 40.4181 117.437 40.4181C118.116 40.4181 118.713 40.3152 119.23 40.1093C119.764 39.8864 120.257 39.5433 120.709 39.0802L122.721 41.3958C121.493 42.888 119.699 43.6342 117.34 43.6342C115.869 43.6342 114.569 43.334 113.438 42.7337C112.306 42.1162 111.434 41.2671 110.82 40.1865C110.206 39.1059 109.899 37.8795 109.899 36.5073C109.899 35.1523 110.198 33.9345 110.796 32.8539C111.41 31.7561 112.242 30.9071 113.292 30.3068C114.359 29.6893 115.546 29.3805 116.855 29.3805C118.132 29.3805 119.287 29.6721 120.321 30.2553C121.355 30.8385 122.163 31.679 122.745 32.7767C123.343 33.8573 123.642 35.118 123.642 36.5588ZM116.879 32.4165C116.023 32.4165 115.304 32.6738 114.722 33.1884C114.14 33.7029 113.785 34.4062 113.656 35.2981H120.079C119.95 34.4233 119.594 33.7287 119.012 33.2141C118.431 32.6824 117.72 32.4165 116.879 32.4165Z" fill="white"/>
<path d="M126.159 24.3377H129.94V43.4283H126.159V24.3377Z" fill="white"/>
<path d="M137.837 43.6342C136.754 43.6342 135.696 43.4969 134.662 43.2225C133.627 42.9309 132.803 42.5707 132.189 42.1419L133.45 39.2603C134.031 39.6548 134.734 39.9807 135.558 40.238C136.382 40.4781 137.19 40.5982 137.982 40.5982C139.582 40.5982 140.382 40.178 140.382 39.3375C140.382 38.943 140.164 38.66 139.727 38.4884C139.291 38.3169 138.62 38.1711 137.716 38.0511C136.649 37.8795 135.768 37.6823 135.074 37.4593C134.379 37.2363 133.773 36.8418 133.256 36.2758C132.755 35.7098 132.504 34.9036 132.504 33.8573C132.504 32.9825 132.739 32.2107 133.207 31.5417C133.692 30.8556 134.387 30.3239 135.292 29.9466C136.213 29.5692 137.295 29.3805 138.54 29.3805C139.461 29.3805 140.374 29.492 141.279 29.715C142.2 29.9208 142.959 30.2124 143.557 30.5898L142.297 33.4456C141.149 32.7596 139.897 32.4165 138.54 32.4165C137.732 32.4165 137.126 32.5366 136.722 32.7767C136.318 33.0168 136.116 33.3256 136.116 33.7029C136.116 34.1317 136.334 34.4319 136.77 34.6034C137.207 34.775 137.901 34.9379 138.855 35.0923C139.921 35.281 140.794 35.4868 141.472 35.7098C142.151 35.9156 142.741 36.3015 143.242 36.8675C143.743 37.4336 143.993 38.2226 143.993 39.2346C143.993 40.0922 143.751 40.8555 143.266 41.5244C142.781 42.1934 142.07 42.7165 141.133 43.0939C140.212 43.4541 139.113 43.6342 137.837 43.6342Z" fill="white"/>
<path d="M10.7833 37.5552C8.80853 34.3174 7.76754 30.5352 7.80199 26.6758C7.80199 20.6674 9.97582 15.6503 14.3273 11.6284C17.5727 8.62622 21.4229 6.74123 25.8815 5.98154V1.07407C19.0883 1.11063 13.4164 3.51562 8.87359 8.28497C4.29247 13.0909 2 19.0871 2 26.2696C2 31.0146 3.04864 35.3492 5.13828 39.2655C7.1705 43.1167 10.1557 46.3017 13.7685 48.4792C17.4043 50.6973 21.4382 51.8063 25.8739 51.8185V47.6586C23.4742 47.2361 21.1511 46.4317 18.9773 45.2698C15.5061 43.4051 12.7735 40.8336 10.7833 37.5552Z" fill="#FFE400"/>
<path d="M17.7565 35.792C15.5214 33.2449 14.4039 30.0964 14.4039 26.3549C14.4039 22.6133 15.5061 19.4974 17.7105 17.0071C19.8997 14.5331 22.6208 13.2859 25.8854 13.2696V5.98154C21.4305 6.74529 17.5766 8.62622 14.3311 11.6284C9.98347 15.6503 7.80581 20.6674 7.80581 26.6758C7.7752 30.5352 8.81236 34.3174 10.791 37.5552C12.7773 40.8336 15.5099 43.4051 18.985 45.2657C21.155 46.4276 23.4781 47.232 25.8777 47.6545V39.6108C22.6744 39.5945 19.9686 38.323 17.7565 35.792Z" fill="#EC9122"/>
<path d="M54.1987 12.6643C56.4147 15.3578 57.8307 18.6849 58.2747 22.2274C59.0171 27.7402 57.6394 32.6436 54.149 36.9417C51.5427 40.147 48.2398 42.4098 44.2443 43.7261L44.849 48.2273C51.0834 47.2482 55.986 44.2583 59.5683 39.2533C63.1735 34.2036 64.5321 28.3861 63.6442 21.7887C63.0586 17.4337 61.566 13.6028 59.1626 10.3C56.8242 7.04998 53.6936 4.53936 50.1113 3.04437C46.5061 1.52094 42.6637 1.05782 38.5877 1.66313L39.1006 5.48592C41.3548 5.53873 43.5898 5.95717 45.7254 6.71685C49.1469 7.95185 51.9713 9.93434 54.1987 12.6643Z" fill="#EC3593"/>
<path d="M48.0293 15.2481C50.3945 17.2793 51.8068 20.0093 52.266 23.4421C52.7253 26.8708 52.0976 29.8852 50.3831 32.4811C48.68 35.0527 46.3301 36.5761 43.3372 37.0473L44.2366 43.7261C48.2322 42.4058 51.5312 40.147 54.1413 36.9417C57.6355 32.6477 59.0095 27.7402 58.2708 22.2274C57.8231 18.6809 56.407 15.3578 54.1949 12.6643C51.9637 9.93028 49.1392 7.95185 45.7254 6.72498C43.5898 5.96123 41.3548 5.54686 39.1006 5.49405L40.0918 12.8675C43.0349 12.4409 45.6833 13.2371 48.0293 15.2481Z" fill="#B11F80"/>
<path d="M38.7244 1.70426L29.4643 3.1062L37.915 66L47.1751 64.5981L38.7244 1.70426Z" fill="#EC3593"/>
</g>
<defs>
<clipPath id="clip0_175_11">
<rect width="102" height="49" fill="white" transform="translate(71 8)"/>
</clipPath>
<clipPath id="clip1_175_11">
<rect width="66" height="66" fill="white"/>
</clipPath>
</defs>
</svg>
